<svg width="29" height="29" viewBox="0 0 29 29" fill="none" xmlns="http://www.w3.org/2000/svg">
<path d="M29 29H14.5074C11.6759 28.9987 8.90662 28.1699 6.54066 26.6159C4.17469 25.0619 2.31538 22.8505 1.19175 20.254C0.0681172 17.6576 -0.270767 14.7895 0.216839 12.003C0.704444 9.21655 1.99724 6.63341 3.936 4.57178C5.87476 2.51015 8.37479 1.06006 11.1282 0.400125C13.8816 -0.25981 16.768 -0.10077 19.4321 0.857657C22.0961 1.81608 24.4214 3.53204 26.1214 5.79416C27.8215 8.05629 28.8221 10.7658 29 13.5889V13.665V29ZM14.5074 2.41667C11.2996 2.41667 8.22309 3.68973 5.95478 5.95579C3.68648 8.22186 2.41216 11.2953 2.41216 14.5C2.41216 17.7047 3.68648 20.7781 5.95478 23.0442C8.22309 25.3103 11.2996 26.5833 14.5074 26.5833H26.5809V13.7037C26.3735 10.6446 25.0118 7.77808 22.7709 5.68307C20.5299 3.58806 17.5766 2.42068 14.5074 2.41667Z" fill="white"/>
<path d="M15.7848 8.44304H8.44302V11.0127H15.7848V8.44304Z" fill="white"/>
<path d="M20.5569 13.2152H8.44302V15.7848H20.5569V13.2152Z" fill="white"/>
<path d="M20.5569 17.9873H8.44302V20.557H20.5569V17.9873Z" fill="white"/>
</svg>
