<svg width="35" height="37" viewBox="0 0 35 37" fill="none" xmlns="http://www.w3.org/2000/svg">
<path d="M33.8504 14.8942C33.6654 15.0138 33.4552 15.0889 33.2362 15.1134L30.0734 15.4641C29.6981 15.5059 29.3216 15.3969 29.0267 15.1611C28.7318 14.9253 28.5427 14.582 28.5009 14.2067C28.4591 13.8314 28.5681 13.4549 28.8039 13.16C29.0398 12.8651 29.3831 12.6759 29.7583 12.6342L32.9212 12.2835C33.2401 12.2477 33.5619 12.3208 33.8341 12.4909C34.1062 12.661 34.3129 12.9181 34.4206 13.2205C34.5282 13.5229 34.5304 13.8528 34.4269 14.1567C34.3234 14.4605 34.1202 14.7204 33.8504 14.8942V14.8942ZM24.9616 5.22003L26.5787 2.47934C26.7708 2.15422 26.8258 1.76613 26.7317 1.40045C26.6376 1.03477 26.402 0.721455 26.0769 0.529424C25.7518 0.337394 25.3637 0.282382 24.998 0.376489C24.6324 0.470597 24.319 0.706117 24.127 1.03124L22.5099 3.77193C22.3179 4.09704 22.2628 4.48513 22.3569 4.85081C22.4511 5.21649 22.6866 5.52981 23.0117 5.72184C23.3368 5.91387 23.7249 5.96888 24.0906 5.87477C24.4563 5.78066 24.7696 5.54515 24.9616 5.22003V5.22003ZM30.4082 6.95141C30.2033 6.63448 29.8808 6.41195 29.5118 6.33278C29.1427 6.25362 28.7573 6.3243 28.4404 6.52927L26.0504 8.07497C25.7335 8.27994 25.511 8.60242 25.4318 8.97146C25.3526 9.3405 25.4233 9.72588 25.6283 10.0428C25.8333 10.3597 26.1557 10.5823 26.5248 10.6614C26.8938 10.7406 27.2792 10.6699 27.5961 10.4649L29.9861 8.91925C30.303 8.71427 30.5256 8.3918 30.6047 8.02275C30.6839 7.65371 30.6132 7.26834 30.4082 6.95141ZM30.194 22.3434L16.2827 0.833606C16.0777 0.516676 15.7552 0.29415 15.3862 0.214984C15.0171 0.135817 14.6317 0.206495 14.3148 0.411468C13.9979 0.61644 13.7754 0.938919 13.6962 1.30796C13.617 1.677 13.6877 2.06238 13.8927 2.37931C16.1718 5.90333 13.8974 9.15554 11.0091 11.0235L2.64421 16.4335C1.37649 17.2534 0.486386 18.5433 0.16972 20.0194C-0.146945 21.4956 0.135764 23.0371 0.955655 24.3048L2.50136 26.6948C3.32125 27.9625 4.61116 28.8526 6.08732 29.1693C7.56349 29.486 9.10499 29.2033 10.3727 28.3834L18.7376 22.9734C21.6259 21.1054 25.5249 20.3651 27.804 23.8891C28.009 24.206 28.3314 24.4286 28.7005 24.5077C29.0695 24.5869 29.4549 24.5162 29.7718 24.3113C30.0888 24.1063 30.3113 23.7838 30.3905 23.4148C30.4696 23.0457 30.3989 22.6603 30.194 22.3434ZM16.9206 27.5382L11.9184 30.7733C11.3606 31.131 10.7631 31.4224 10.1379 31.6419L17.4394 36.3802C18.0549 36.7817 18.7736 36.9962 19.5085 36.9976C20.2434 36.9991 20.963 36.7875 21.5801 36.3885C22.0707 36.0703 22.4738 35.6344 22.7527 35.1205C23.0317 34.6067 23.1776 34.0312 23.1772 33.4465C23.1768 32.8618 23.03 32.2865 22.7504 31.773C22.4707 31.2595 22.067 30.8242 21.576 30.5067L16.9206 27.5382Z" fill="white"/>
</svg>
