<svg width="35" height="35" viewBox="0 0 35 35" fill="none" xmlns="http://www.w3.org/2000/svg">
<path d="M30.1534 10.7542C28.8176 12.0915 29.1224 14.8976 30.1899 16.838C30.5973 17.6072 30.7153 18.4974 30.5224 19.3464C30.3295 20.1955 29.8386 20.9469 29.1389 21.4641C28.4392 21.9812 27.5773 22.2296 26.7101 22.1641C25.8429 22.0985 25.028 21.7234 24.4137 21.107L13.8764 10.5571C13.2644 9.94133 12.8929 9.12644 12.8293 8.26008C12.7658 7.39373 13.0143 6.53322 13.5298 5.83452C14.0454 5.13581 14.7939 4.64513 15.6397 4.45139C16.4855 4.25765 17.3726 4.37367 18.1403 4.77843C20.0783 5.84568 22.8811 6.15228 24.2169 4.81493L27.8319 1.19122C28.6314 0.426642 29.6945 0 30.8001 0C31.9058 0 32.9689 0.426642 33.7684 1.19122C34.1588 1.58173 34.4686 2.04545 34.6799 2.55587C34.8912 3.0663 35 3.61342 35 4.16596C35 4.7185 34.8912 5.26562 34.6799 5.77605C34.4686 6.28647 34.1588 6.75019 33.7684 7.1407L30.1534 10.7542ZM2.87099 25.287C2.15213 26.0134 1.68218 26.9495 1.52887 27.9605C1.37556 28.9714 1.5468 30.0051 2.01791 30.9123L0.426956 32.5081C0.153576 32.7819 0 33.1532 0 33.5403C0 33.9275 0.153576 34.2987 0.426956 34.5725C0.700419 34.8462 1.07126 35 1.45794 35C1.84462 35 2.21546 34.8462 2.48892 34.5725L4.08279 32.9797C4.987 33.4617 6.02242 33.6389 7.0352 33.4847C8.04797 33.3306 8.98406 32.8534 9.70435 32.1241L20.4954 21.3202L13.6679 14.4786L2.87099 25.287Z" fill="white"/>
</svg>
