<svg width="41" height="32" viewBox="0 0 41 32" fill="none" xmlns="http://www.w3.org/2000/svg">
<path d="M17.8672 31.9688L13.9597 30.8625C13.5498 30.75 13.3192 30.3312 13.4345 29.9312L22.1783 0.541467C22.2936 0.141437 22.7228 -0.0835797 23.1328 0.0289288L27.0403 1.13526C27.4502 1.24777 27.6808 1.66655 27.5655 2.06658L18.8217 31.4563C18.7 31.8563 18.2772 32.0876 17.8672 31.9688V31.9688ZM10.5647 24.9558L13.3512 22.0556C13.6458 21.7493 13.6266 21.2618 13.2999 20.9805L7.49633 15.9989L13.2999 11.0173C13.6266 10.736 13.6523 10.2484 13.3512 9.94218L10.5647 7.04196C10.2764 6.74193 9.78959 6.72318 9.4757 7.0107L0.24502 15.4488C-0.0816733 15.7426 -0.0816733 16.2489 0.24502 16.5427L9.4757 24.9871C9.78959 25.2746 10.2764 25.2621 10.5647 24.9558V24.9558ZM31.5243 24.9933L40.755 16.5489C41.0817 16.2551 41.0817 15.7489 40.755 15.4551L31.5243 7.00445C31.2168 6.72318 30.73 6.73568 30.4353 7.03571L27.6488 9.93592C27.3542 10.2422 27.3734 10.7297 27.7001 11.011L33.5037 15.9989L27.7001 20.9805C27.3734 21.2618 27.3477 21.7493 27.6488 22.0556L30.4353 24.9558C30.7236 25.2621 31.2104 25.2746 31.5243 24.9933V24.9933Z" fill="white"/>
</svg>
