<svg width="33" height="39" viewBox="0 0 33 39" fill="none" xmlns="http://www.w3.org/2000/svg">
<path d="M4.77807 14.0656C4.33577 14.069 3.90438 14.2033 3.5384 14.4517C3.17242 14.7001 2.88827 15.0514 2.72183 15.4612C2.5554 15.871 2.51416 16.321 2.60332 16.7542C2.69247 17.1874 2.90802 17.5845 3.22274 17.8953C3.53746 18.2061 3.93723 18.4167 4.37156 18.5004C4.80588 18.5841 5.25528 18.5372 5.66298 18.3657C6.07067 18.1941 6.41838 17.9056 6.66219 17.5366C6.90599 17.1675 7.03495 16.7345 7.03277 16.2922C7.03279 15.9974 6.97428 15.7056 6.86063 15.4336C6.74698 15.1616 6.58046 14.9149 6.37071 14.7077C6.16097 14.5006 5.91219 14.3372 5.63879 14.227C5.3654 14.1167 5.07283 14.0619 4.77807 14.0656ZM4.82979 17.4343C4.60524 17.4414 4.38364 17.3816 4.1932 17.2624C4.00277 17.1432 3.85213 16.97 3.76045 16.7649C3.66877 16.5598 3.64022 16.3321 3.67841 16.1107C3.71661 15.8893 3.81983 15.6843 3.97494 15.5217C4.13005 15.3592 4.33001 15.2465 4.54938 15.198C4.76875 15.1495 4.99759 15.1674 5.20676 15.2494C5.41593 15.3314 5.59596 15.4738 5.72393 15.6584C5.85191 15.8431 5.92203 16.0616 5.92537 16.2863C5.92921 16.5829 5.81665 16.8692 5.61184 17.0838C5.40703 17.2984 5.12628 17.4242 4.82979 17.4343Z" fill="#FEFEFE"/>
<path d="M4.80315 21.0982C4.36089 21.0966 3.92809 21.2261 3.55938 21.4703C3.19067 21.7145 2.9026 22.0625 2.73154 22.4704C2.56049 22.8782 2.51412 23.3276 2.59829 23.7617C2.68247 24.1959 2.8934 24.5954 3.20447 24.9098C3.51554 25.2242 3.91279 25.4393 4.34605 25.528C4.77931 25.6168 5.22915 25.5752 5.63877 25.4084C6.04838 25.2417 6.3994 24.9573 6.6475 24.5912C6.89559 24.225 7.02964 23.7936 7.03271 23.3514C7.03534 23.0567 6.97964 22.7645 6.86882 22.4915C6.75799 22.2185 6.59424 21.9701 6.38699 21.7606C6.17975 21.5512 5.9331 21.3848 5.66127 21.2711C5.38944 21.1574 5.0978 21.0986 4.80315 21.0982ZM4.80315 24.4673C4.57844 24.4686 4.35844 24.4029 4.17118 24.2787C3.98393 24.1545 3.83791 23.9773 3.75172 23.7698C3.66554 23.5623 3.64311 23.3338 3.68728 23.1135C3.73146 22.8931 3.84023 22.691 3.99975 22.5327C4.15927 22.3744 4.36231 22.2673 4.58297 22.2248C4.80364 22.1824 5.03194 22.2066 5.23878 22.2945C5.44561 22.3823 5.62162 22.5297 5.74435 22.7179C5.86708 22.9062 5.93097 23.1267 5.9279 23.3514C5.92478 23.6483 5.8047 23.932 5.59371 24.1409C5.38272 24.3498 5.09785 24.4671 4.80093 24.4673H4.80315Z" fill="#FEFEFE"/>
<path d="M4.81138 27.4918C4.36803 27.4881 3.93371 27.635 3.56354 27.9139C3.19337 28.1927 2.90402 28.591 2.73222 29.0581C2.56042 29.5252 2.5139 30.0401 2.59858 30.5375C2.68325 31.0349 2.8953 31.4923 3.20781 31.8517C3.52033 32.2111 3.91922 32.4563 4.35387 32.5562C4.78853 32.6562 5.23936 32.6062 5.64916 32.4129C6.05896 32.2195 6.40925 31.8913 6.65559 31.47C6.90194 31.0487 7.03322 30.5533 7.03279 30.0466C7.03398 29.3714 6.80076 28.7232 6.38431 28.2442C5.96786 27.7653 5.40219 27.4947 4.81138 27.4918ZM4.80546 31.3388C4.58156 31.3419 4.36194 31.2687 4.17453 31.1286C3.98713 30.9886 3.84042 30.788 3.75307 30.5524C3.66572 30.3167 3.64168 30.0567 3.684 29.8054C3.72633 29.5542 3.83311 29.3229 3.99076 29.1412C4.14841 28.9595 4.3498 28.8355 4.5693 28.7849C4.7888 28.7344 5.0165 28.7596 5.22342 28.8574C5.43033 28.9552 5.60711 29.1212 5.73127 29.3342C5.85542 29.5471 5.92132 29.7975 5.9206 30.0534C5.92148 30.2215 5.89331 30.3882 5.8377 30.5439C5.78208 30.6996 5.70013 30.8413 5.59653 30.9607C5.49293 31.0801 5.36972 31.175 5.23397 31.2399C5.09823 31.3048 4.9526 31.3384 4.80546 31.3388Z" fill="#FEFEFE"/>
<path d="M5.41257 8.31281C5.95791 8.31281 6.50393 8.31281 7.04996 8.31281C7.44782 8.31281 7.67419 8.55382 7.67213 8.95492C7.67007 9.35602 7.44302 9.58595 7.04173 9.58766C5.96157 9.59106 4.88118 9.59106 3.80056 9.58766C3.42534 9.58766 3.20514 9.35176 3.19691 8.96684C3.18937 8.56489 3.41711 8.31707 3.80879 8.31366C4.34315 8.30941 4.87752 8.31281 5.41257 8.31281Z" fill="#FEFEFE"/>
<path d="M7.67219 24.3024C7.66767 23.9174 7.92384 23.665 8.35856 23.6599C9.08335 23.6506 9.80814 23.6599 10.5329 23.6599C11.2577 23.6599 11.9833 23.6548 12.7081 23.6599C13.1729 23.6599 13.4336 23.9081 13.4261 24.3084C13.4185 24.7086 13.1669 24.929 12.7224 24.9307C11.2723 24.9357 9.82246 24.9357 8.37288 24.9307C7.93288 24.9239 7.67671 24.6833 7.67219 24.3024Z" fill="#FEFEFE"/>
<path d="M15.9495 17.4896C16.0371 17.6275 15.9495 17.7405 15.7587 17.8322C15.6109 17.905 15.4247 17.9015 15.2425 17.9015H11.8505C10.7063 17.9015 9.56207 17.9015 8.41706 17.9015C7.93216 17.9015 7.66077 17.7799 7.6725 17.5761C7.68345 17.38 7.94936 17.2626 8.41003 17.2622C10.6852 17.2622 12.9611 17.2622 15.237 17.2622C15.5585 17.2614 15.8314 17.3038 15.9495 17.4896Z" fill="#FEFEFE"/>
<path d="M15.9812 14.6784C15.9931 14.8151 15.9603 14.952 15.8888 15.065C15.8172 15.178 15.7114 15.2599 15.5899 15.2962C15.4778 15.3325 15.3609 15.3484 15.244 15.3432C12.9672 15.3432 10.6904 15.3432 8.41362 15.3432C8.3227 15.3462 8.23173 15.3394 8.14206 15.3227C7.82903 15.2518 7.66312 15.0231 7.67251 14.6886C7.6819 14.3541 7.85094 14.1314 8.17024 14.0844C8.30017 14.0693 8.4309 14.0636 8.56153 14.0674H11.8406C12.9331 14.0674 14.0258 14.0674 15.1188 14.0674C15.2616 14.0607 15.4047 14.0713 15.5453 14.099C15.6691 14.1238 15.7808 14.1956 15.8606 14.3016C15.9404 14.4077 15.9831 14.5412 15.9812 14.6784Z" fill="#FEFEFE"/>
<path d="M7.67213 28.7664C7.67213 28.3727 7.93801 28.1322 8.39079 28.1313C9.54554 28.1313 10.7006 28.1313 11.8558 28.1313C12.985 28.1313 14.1142 28.1313 15.2434 28.1313C15.7064 28.1313 15.9707 28.3547 15.9832 28.7442C15.9957 29.1499 15.7142 29.41 15.245 29.41C12.961 29.41 10.6768 29.41 8.39235 29.41C7.94348 29.41 7.6737 29.1593 7.67213 28.7664Z" fill="#FEFEFE"/>
<path d="M7.6751 31.2669C7.70194 30.9383 7.88511 30.7207 8.20882 30.7012C8.48358 30.6843 8.76149 30.6902 9.03467 30.6902H17.6516C17.7834 30.6855 17.9152 30.6904 18.0464 30.7046C18.1724 30.7144 18.291 30.7725 18.3804 30.8682C18.4698 30.964 18.5242 31.0911 18.5335 31.2263C18.5738 31.5404 18.4506 31.7708 18.1759 31.9037C18.0132 31.9808 17.8419 31.9655 17.6721 31.9655C14.6293 31.9655 11.5862 31.9655 8.54279 31.9655C8.39927 31.9719 8.25555 31.9594 8.11487 31.9283C7.80458 31.8411 7.64825 31.5972 7.6751 31.2669Z" fill="#FEFEFE"/>
<path d="M18.5343 21.6415C18.5722 21.9568 18.4483 22.1886 18.1712 22.3164C18.0205 22.3863 17.8626 22.3743 17.7055 22.3743H8.50103C8.3956 22.3804 8.28987 22.3755 8.1853 22.3598C7.86009 22.2917 7.67775 22.0718 7.67223 21.7131C7.6667 21.3722 7.90903 21.1226 8.25555 21.1038C8.49235 21.091 8.72915 21.1038 8.96595 21.1038H17.6984C17.8161 21.0988 17.934 21.1028 18.0512 21.1158C18.1765 21.1271 18.2939 21.1863 18.3824 21.2826C18.471 21.379 18.5248 21.5062 18.5343 21.6415Z" fill="#FEFEFE"/>
<path d="M27.6336 7.83512C27.8573 7.61523 27.7424 7.55415 27.5629 7.43428C24.0631 5.10253 19.1276 7.15407 18.2915 11.29C17.5862 14.783 19.8458 18.0692 23.3456 18.6403C26.8264 19.2076 30.104 16.5735 30.3452 13.0125C30.3436 12.886 30.359 12.7599 30.3909 12.6376C30.4943 12.3536 30.7097 12.21 31.0132 12.2604C31.3335 12.3131 31.4994 12.5284 31.4903 12.8476C31.465 13.8006 31.2446 14.7383 30.8428 15.6023C30.0698 17.2683 28.8426 18.48 27.1718 19.2244C26.9078 19.3427 26.8302 19.4702 26.831 19.752C26.8393 25.3752 26.8218 30.9992 26.85 36.6255C26.8553 37.7898 26.4757 38.6106 25.3451 38.9985C25.339 38.8458 25.466 38.8168 25.565 38.7748C26.2794 38.4755 26.6354 37.9212 26.7252 37.1668C26.7475 36.9385 26.7564 36.709 26.7518 36.4797C26.7518 31.0091 26.761 25.5378 26.7397 20.0642C26.7397 19.4962 26.9314 19.2106 27.429 18.9571C29.8058 17.7455 31.0855 15.7626 31.3708 13.1163C31.383 13.0282 31.383 12.9388 31.3708 12.8506C31.329 12.6055 31.2232 12.4062 30.9448 12.3971C30.6663 12.3879 30.5301 12.5727 30.4928 12.8201C30.4502 13.0957 30.4297 13.3744 30.381 13.6492C30.1614 14.9232 29.552 16.097 28.6374 17.0076C27.7229 17.9183 26.5485 18.5207 25.2774 18.7311C21.7654 19.3137 18.5159 16.817 18.0876 13.2698C17.7072 10.1447 19.9432 6.80209 23.5655 6.38522C24.9101 6.21582 26.272 6.51211 27.4259 7.22508C27.9121 7.52208 27.925 7.65341 27.5233 8.05883C26.4622 9.12774 25.3971 10.1967 24.3279 11.2656C23.9581 11.6351 23.8516 11.6328 23.4841 11.2732C23.004 10.8036 22.546 10.3119 22.0553 9.85231C21.512 9.34381 20.8912 9.09491 20.1456 9.35909C19.8807 9.44893 19.6412 9.60146 19.4474 9.80377C19.2536 10.0061 19.1112 10.2522 19.0321 10.5214C18.9531 10.7906 18.9398 11.0749 18.9934 11.3504C19.047 11.6258 19.1658 11.8843 19.3399 12.1039C19.5273 12.3274 19.7286 12.5388 19.9425 12.7368C20.809 13.6088 21.7053 14.4524 22.5361 15.3572C23.268 16.1543 24.5203 16.1276 25.2621 15.3656C27.4541 13.114 29.6909 10.9067 31.9064 8.67803C32.4474 8.13365 32.6399 7.49154 32.3629 6.76239C32.105 6.08898 31.5861 5.71257 30.874 5.62477C30.3011 5.55376 29.8454 5.82328 29.4284 6.16991C29.2519 6.31498 29.0998 6.486 28.9369 6.64558C28.7475 6.83111 28.5497 6.86852 28.3283 6.712C27.9492 6.45803 27.5511 6.2339 27.1376 6.04164C27.0198 5.99268 26.9203 5.90782 26.8531 5.79905C26.7859 5.69027 26.7545 5.56308 26.7633 5.43541C26.7688 5.20698 26.7515 4.97856 26.7115 4.7536C26.5236 3.76104 25.8465 3.16856 24.8361 3.16016C23.2049 3.14642 21.5729 3.16016 19.9409 3.16016C19.0941 3.16016 19.0454 3.16016 18.9823 2.3203C18.8872 1.04677 17.8083 0.0687164 16.4214 0.101547C14.3983 0.149648 12.3738 0.112237 10.3492 0.114528C8.81842 0.114528 7.86435 1.06967 7.85522 2.60814C7.85065 3.38234 7.84837 4.15654 7.85522 4.93074C7.86435 5.84695 8.35052 6.35621 9.26579 6.36079C12.0357 6.37453 14.8059 6.37453 17.5763 6.36079C18.3713 6.36079 18.8415 5.92712 18.9716 5.13918C18.999 4.95093 19.0158 4.76127 19.0219 4.57113C19.0432 4.16647 19.1177 4.08477 19.5301 4.08248C21.2884 4.07561 23.0466 4.06874 24.8049 4.08248C25.409 4.08859 25.743 4.39628 25.8191 4.95364C25.8807 5.41175 25.7331 5.56445 25.272 5.50184C24.456 5.39199 23.6276 5.41778 22.8199 5.57819C19.807 6.18136 17.4941 8.8063 17.1738 11.8726C16.8588 14.9106 18.6125 17.8485 21.2206 19.0495C22.4905 19.6351 23.8158 19.868 25.2104 19.6726C25.7742 19.5962 25.8419 19.6626 25.8427 20.2505C25.8427 24.5537 25.8427 28.8568 25.8427 33.1599V36.6255C25.8515 36.8415 25.83 37.0576 25.7787 37.2676C25.7346 37.4547 25.6316 37.6226 25.485 37.7463C25.3384 37.8701 25.1559 37.9432 24.9647 37.9548C24.8011 37.9708 24.636 37.9639 24.4716 37.9639H2.19087C1.33342 37.9571 1.02453 37.6524 1.02377 36.7912C1.02377 32.3486 1.02377 27.906 1.02377 23.4634V5.44992C1.02377 4.30924 1.26114 4.07561 2.40771 4.07561H5.29352C5.42057 4.08196 5.54793 4.07634 5.67393 4.05881C5.91055 4.01529 6.07641 3.88778 6.07793 3.63201C6.07945 3.37623 5.92576 3.23957 5.69067 3.1823C5.56542 3.15791 5.43767 3.14893 5.31025 3.15558C4.22227 3.15558 3.1343 3.151 2.04631 3.15558C0.845732 3.16169 0.10849 3.9 0.10849 5.1094C0.105446 15.7217 0.105446 26.3344 0.10849 36.9477C0.10849 37.815 0.482058 38.4274 1.27636 38.7801C1.37679 38.8252 1.5145 38.8412 1.51678 39C0.768126 38.7458 0.205117 38.3067 0.0392565 37.4844C0.0103288 37.3222 -0.00266826 37.1575 0.00045366 36.9927C0.00045366 26.3545 0.00045366 15.7163 0.00045366 5.07809C0.00045366 3.84121 0.781824 3.0548 2.0098 3.05251C3.19897 3.05251 4.38813 3.05251 5.5773 3.05251C5.90826 3.05251 6.14793 3.18688 6.2164 3.52359C6.27422 3.80456 6.14717 4.01605 5.89305 4.14738C5.76295 4.21533 5.62067 4.19471 5.48296 4.19471C4.34172 4.19471 3.20581 4.19471 2.06762 4.19471C1.40494 4.19471 1.13941 4.4566 1.13865 5.11092C1.13865 15.7237 1.13865 26.3365 1.13865 36.9492C1.13865 37.5867 1.40418 37.857 2.03262 37.857C9.62313 37.857 17.2134 37.857 24.8034 37.857C25.4326 37.857 25.7011 37.5898 25.7011 36.9492C25.7011 31.313 25.7037 25.6768 25.7087 20.0406C25.7087 19.755 25.638 19.7145 25.3641 19.7626C21.6201 20.4208 17.8068 17.7226 17.1525 13.9646C16.4487 9.92255 18.9115 6.27833 22.9158 5.44763C23.7492 5.28049 24.6064 5.27117 25.4432 5.42015C25.6471 5.45527 25.7034 5.42015 25.7087 5.20484C25.7255 4.49859 25.4516 4.19701 24.7486 4.19701C22.9774 4.19701 21.2062 4.20388 19.435 4.18861C19.1451 4.18861 19.0622 4.26496 19.0865 4.54746C19.2128 5.9798 18.5403 6.50356 17.1548 6.47684C14.5497 6.42492 11.9431 6.46233 9.33731 6.46157C8.24781 6.46157 7.74566 5.95155 7.7449 4.84981C7.7449 4.05041 7.73957 3.25025 7.7449 2.45086C7.75783 1.04372 8.79332 0.00763508 10.2001 0.00305403C12.3129 -0.00381754 14.4257 0.00305403 16.5378 0.00305403C18.0594 0.00305403 19.0591 0.988744 19.0888 2.50889C19.0995 3.05556 19.0995 3.05556 19.6503 3.05556C21.3713 3.05556 23.0918 3.05556 24.8117 3.05556C26.045 3.05556 26.8599 3.83358 26.8264 5.06664C26.812 5.61026 26.9398 5.92864 27.4777 6.09585C27.849 6.21038 28.1723 6.45394 28.4835 6.69368C28.6083 6.78988 28.6904 6.78911 28.7992 6.66924C28.9864 6.4631 29.1857 6.2684 29.3873 6.07523C30.1855 5.31173 31.3274 5.31173 32.07 6.07523C32.7958 6.82195 32.789 7.9695 32.0266 8.73988C30.1362 10.6492 28.2405 12.5531 26.3395 14.4517C25.9728 14.8197 25.6121 15.1938 25.2378 15.5534C24.4595 16.3009 23.3471 16.3055 22.5818 15.5488C21.5166 14.4983 20.4608 13.4393 19.4144 12.3719C18.6536 11.6007 18.6536 10.4547 19.3855 9.70801C20.1174 8.9613 21.2625 8.95137 22.0408 9.69885C22.6076 10.2432 23.1607 10.8021 23.704 11.3694C23.8676 11.5404 23.9543 11.5366 24.1194 11.3694C25.2819 10.1804 26.4533 9.00227 27.6336 7.83512Z" fill="#FEFEFE"/>
<path d="M24.1198 11.3689C23.9547 11.5361 23.868 11.54 23.7044 11.3689C23.1611 10.8016 22.608 10.2427 22.0412 9.69834C21.2628 8.95085 20.1163 8.96307 19.3859 9.7075C18.6555 10.4519 18.657 11.6003 19.4148 12.3714C20.4632 13.4404 21.519 14.4994 22.5821 15.5484C23.3475 16.3051 24.4599 16.3005 25.2382 15.553C25.6126 15.1934 25.9732 14.8193 26.3399 14.4513C28.2369 12.5481 30.1327 10.6441 32.0272 8.73935C32.788 7.96896 32.7964 6.82139 32.0706 6.07466C31.328 5.31114 30.186 5.31114 29.3878 6.07466C29.1862 6.26784 28.9869 6.46253 28.7997 6.66868C28.6909 6.78856 28.6088 6.78932 28.484 6.69311C28.1728 6.45337 27.8494 6.20981 27.4781 6.09528C26.9402 5.92807 26.8124 5.60968 26.8269 5.06605C26.8603 3.83296 26.0455 3.05646 24.8122 3.05494C23.0922 3.05494 21.3717 3.05494 19.6506 3.05494C19.0998 3.05494 19.0998 3.05493 19.0891 2.50825C19.0595 0.988082 18.059 0.00390244 16.538 0.0023754C14.426 0.0023754 12.3131 -0.00296925 10.2003 0.0023754C8.79347 0.00619301 7.75796 1.04306 7.74503 2.45023C7.73818 3.24963 7.74503 4.0498 7.74503 4.84921C7.74503 5.95097 8.24794 6.46101 9.33747 6.46101C11.9433 6.46101 14.55 6.42436 17.1551 6.47627C18.5406 6.503 19.2132 5.97922 19.0869 4.54686C19.0625 4.26512 19.1454 4.18571 19.4353 4.188C21.2065 4.20327 22.9778 4.19487 24.749 4.1964C25.452 4.1964 25.7259 4.49799 25.7092 5.20425C25.7039 5.4188 25.6476 5.45468 25.4437 5.41956C24.6068 5.27058 23.7496 5.27991 22.9162 5.44705C18.9119 6.27776 16.449 9.92205 17.1528 13.9641C17.8071 17.7222 21.6204 20.4205 25.3645 19.7623C25.6384 19.7142 25.7092 19.7547 25.7092 20.0402C25.7016 25.6765 25.699 31.3129 25.7016 36.9492C25.7016 37.5898 25.433 37.857 24.8038 37.857C17.2137 37.857 9.62329 37.857 2.03265 37.857C1.4042 37.857 1.13867 37.5867 1.13867 36.9492C1.13867 26.3362 1.13867 15.7233 1.13867 5.11034C1.13867 4.45753 1.40496 4.19411 2.06765 4.19411C3.20891 4.19411 4.34484 4.19411 5.48306 4.19411C5.62077 4.19411 5.76304 4.21473 5.89315 4.14677C6.14727 4.01545 6.27357 3.80395 6.2165 3.52297C6.14803 3.18626 5.90837 3.05188 5.5774 3.05188C4.38821 3.05188 3.19902 3.05188 2.00983 3.05188C0.781833 3.05188 0.00045379 3.8406 0.00045379 5.0775C0.00045379 15.7159 0.00045379 26.3543 0.00045379 36.9927C-0.00266818 37.1575 0.0103244 37.3222 0.0392527 37.4844C0.205116 38.3067 0.76814 38.7457 1.5168 39H25.3524C26.483 38.6098 26.8626 37.7913 26.8573 36.627C26.8291 31.0036 26.8466 25.3795 26.8383 19.7531C26.8383 19.4714 26.9144 19.3439 27.1791 19.2256C28.853 18.4811 30.0772 17.2694 30.8502 15.6034C31.252 14.7394 31.4724 13.8017 31.4977 12.8486C31.5068 12.5295 31.3409 12.3142 31.0206 12.2615C30.7163 12.2111 30.5017 12.3546 30.3982 12.6387C30.3663 12.761 30.351 12.8871 30.3526 13.0135C30.1084 16.5746 26.8307 19.2088 23.3529 18.6415C19.853 18.0703 17.5933 14.7842 18.2986 11.291C19.1355 7.15505 24.0696 5.10652 27.5702 7.43526C27.7498 7.55513 27.8646 7.61621 27.641 7.83611C26.4541 9.0048 25.2803 10.1824 24.1198 11.3689ZM31.4589 7.39861C31.4487 7.61582 31.3536 7.82023 31.1941 7.96743C28.9572 10.2071 26.7216 12.4488 24.4873 14.6925C24.1137 15.0667 23.7044 15.0621 23.3255 14.6849C22.3029 13.6669 21.2842 12.644 20.2692 11.6163C19.9055 11.249 19.8888 10.8238 20.2099 10.5092C20.5309 10.1946 20.941 10.2198 21.3123 10.5855C21.9971 11.2628 22.6719 11.9484 23.3521 12.6287C23.7942 13.0708 24.0277 13.0723 24.466 12.6333C26.3427 10.75 28.2194 8.86661 30.0962 6.98325C30.4766 6.60149 30.8312 6.54576 31.1697 6.80306C31.2611 6.87194 31.3349 6.96152 31.3851 7.0645C31.4354 7.16747 31.4606 7.28091 31.4589 7.39556V7.39861ZM13.4178 5.31572C12.0483 5.31572 10.6857 5.30809 9.31921 5.32107C8.99661 5.32488 8.86727 5.23403 8.87716 4.89044C8.8977 4.10401 8.87716 3.31682 8.884 2.52963C8.88781 1.66838 9.39758 1.14766 10.2459 1.14613C12.358 1.14308 14.4703 1.14308 16.5829 1.14613C17.4244 1.14613 17.9334 1.64548 17.9448 2.48764C17.9555 3.29926 17.938 4.11241 17.9524 4.92404C17.957 5.22257 17.8497 5.32336 17.5538 5.32107C16.1759 5.30961 14.7965 5.31572 13.4178 5.31572Z" fill="#00B894"/>
<path d="M4.80315 21.0982C4.36089 21.0966 3.92809 21.2261 3.55938 21.4703C3.19067 21.7145 2.9026 22.0625 2.73154 22.4704C2.56049 22.8782 2.51412 23.3276 2.59829 23.7617C2.68247 24.1959 2.8934 24.5954 3.20447 24.9098C3.51554 25.2242 3.91279 25.4393 4.34605 25.528C4.77931 25.6168 5.22915 25.5752 5.63877 25.4084C6.04838 25.2417 6.3994 24.9573 6.6475 24.5912C6.89559 24.225 7.02964 23.7936 7.03271 23.3514C7.03534 23.0567 6.97964 22.7645 6.86882 22.4915C6.75799 22.2185 6.59424 21.9701 6.38699 21.7606C6.17975 21.5512 5.9331 21.3848 5.66127 21.2711C5.38944 21.1574 5.0978 21.0986 4.80315 21.0982ZM4.80315 24.4673C4.57844 24.4686 4.35844 24.4029 4.17118 24.2787C3.98393 24.1545 3.83791 23.9773 3.75172 23.7698C3.66554 23.5623 3.64311 23.3338 3.68728 23.1135C3.73146 22.8931 3.84023 22.691 3.99975 22.5327C4.15927 22.3744 4.36231 22.2673 4.58297 22.2248C4.80364 22.1824 5.03194 22.2066 5.23878 22.2945C5.44561 22.3823 5.62162 22.5297 5.74435 22.7179C5.86708 22.9062 5.93097 23.1267 5.9279 23.3514C5.92478 23.6483 5.8047 23.932 5.59371 24.1409C5.38272 24.3498 5.09785 24.4671 4.80093 24.4673H4.80315Z" fill="#00B894"/>
<path d="M4.77807 14.0656C4.33577 14.069 3.90438 14.2033 3.5384 14.4517C3.17242 14.7001 2.88827 15.0514 2.72183 15.4612C2.5554 15.871 2.51416 16.321 2.60332 16.7542C2.69247 17.1874 2.90802 17.5845 3.22274 17.8953C3.53746 18.2061 3.93723 18.4167 4.37156 18.5004C4.80588 18.5841 5.25528 18.5372 5.66298 18.3657C6.07067 18.1941 6.41838 17.9056 6.66219 17.5366C6.90599 17.1675 7.03495 16.7345 7.03277 16.2922C7.03279 15.9974 6.97428 15.7056 6.86063 15.4336C6.74698 15.1616 6.58046 14.9149 6.37071 14.7077C6.16097 14.5006 5.91219 14.3372 5.63879 14.227C5.3654 14.1167 5.07283 14.0619 4.77807 14.0656ZM4.82979 17.4343C4.60524 17.4414 4.38364 17.3816 4.1932 17.2624C4.00277 17.1432 3.85213 16.97 3.76045 16.7649C3.66877 16.5598 3.64022 16.3321 3.67841 16.1107C3.71661 15.8893 3.81983 15.6843 3.97494 15.5217C4.13005 15.3592 4.33001 15.2465 4.54938 15.198C4.76875 15.1495 4.99759 15.1674 5.20676 15.2494C5.41593 15.3314 5.59596 15.4738 5.72393 15.6584C5.85191 15.8431 5.92203 16.0616 5.92537 16.2863C5.92921 16.5829 5.81665 16.8692 5.61184 17.0838C5.40703 17.2984 5.12628 17.4242 4.82979 17.4343Z" fill="#00B894"/>
<path d="M4.81138 27.4918C4.36803 27.4881 3.93371 27.635 3.56354 27.9139C3.19337 28.1927 2.90402 28.591 2.73222 29.0581C2.56042 29.5252 2.5139 30.0401 2.59858 30.5375C2.68325 31.0349 2.8953 31.4923 3.20781 31.8517C3.52033 32.2111 3.91922 32.4563 4.35387 32.5562C4.78853 32.6562 5.23936 32.6062 5.64916 32.4129C6.05896 32.2195 6.40925 31.8913 6.65559 31.47C6.90194 31.0487 7.03322 30.5533 7.03279 30.0466C7.03398 29.3714 6.80076 28.7232 6.38431 28.2442C5.96786 27.7653 5.40219 27.4947 4.81138 27.4918ZM4.80546 31.3388C4.58156 31.3419 4.36194 31.2687 4.17453 31.1286C3.98713 30.9886 3.84042 30.788 3.75307 30.5524C3.66572 30.3167 3.64168 30.0567 3.684 29.8054C3.72633 29.5542 3.83311 29.3229 3.99076 29.1412C4.14841 28.9595 4.3498 28.8355 4.5693 28.7849C4.7888 28.7344 5.0165 28.7596 5.22342 28.8574C5.43033 28.9552 5.60711 29.1212 5.73127 29.3342C5.85542 29.5471 5.92132 29.7975 5.9206 30.0534C5.92148 30.2215 5.89331 30.3882 5.8377 30.5439C5.78208 30.6996 5.70013 30.8413 5.59653 30.9607C5.49293 31.0801 5.36972 31.175 5.23397 31.2399C5.09823 31.3048 4.9526 31.3384 4.80546 31.3388Z" fill="#00B894"/>
<path d="M18.1712 22.3164C18.0205 22.3863 17.8626 22.3743 17.7055 22.3743H8.50103C8.3956 22.3804 8.28987 22.3755 8.1853 22.3598C7.86009 22.2917 7.67775 22.0718 7.67223 21.7131C7.6667 21.3722 7.90903 21.1226 8.25555 21.1038C8.49235 21.091 8.72915 21.1038 8.96595 21.1038H17.6984C17.8161 21.0988 17.934 21.1028 18.0512 21.1158C18.1771 21.1272 18.295 21.187 18.3837 21.2842C18.4723 21.3814 18.5257 21.5097 18.5343 21.6458C18.5722 21.9559 18.4483 22.1877 18.1712 22.3164Z" fill="#00B894"/>
<path d="M18.1748 31.9035C18.0121 31.9808 17.8408 31.9655 17.671 31.9655C14.628 31.9655 11.5848 31.9655 8.54125 31.9655C8.39772 31.9719 8.254 31.9594 8.11331 31.9282C7.80459 31.8432 7.64825 31.6002 7.6751 31.2688C7.70194 30.9375 7.88512 30.7208 8.20885 30.7012C8.48362 30.6843 8.76154 30.6902 9.03473 30.6902H17.6521C17.7838 30.6855 17.9157 30.6904 18.0469 30.7046C18.1729 30.7145 18.2915 30.7727 18.3809 30.8688C18.4704 30.9649 18.5247 31.0924 18.534 31.228C18.5727 31.5416 18.4495 31.7727 18.1748 31.9035Z" fill="#00B894"/>
<path d="M15.9832 28.7442C15.9957 29.1499 15.7142 29.41 15.245 29.41C12.961 29.41 10.6768 29.41 8.39236 29.41C7.94584 29.41 7.67371 29.1593 7.67214 28.7664C7.67058 28.3736 7.93802 28.1322 8.39079 28.1313C9.54554 28.1313 10.7006 28.1313 11.8558 28.1313C12.985 28.1313 14.1142 28.1313 15.2434 28.1313C15.7064 28.1322 15.9707 28.3547 15.9832 28.7442Z" fill="#00B894"/>
<path d="M15.7603 17.8322C15.6125 17.905 15.4264 17.9015 15.2442 17.9015H11.8501C10.706 17.9015 9.5619 17.9015 8.417 17.9015C7.93213 17.9015 7.66077 17.7799 7.6725 17.5761C7.68345 17.38 7.94934 17.2626 8.40996 17.2622C10.6849 17.2622 12.9606 17.2622 15.2364 17.2622C15.5601 17.2622 15.8331 17.305 15.9511 17.49C16.0364 17.6283 15.9472 17.7392 15.7603 17.8322Z" fill="#00B894"/>
<path d="M15.9812 14.6784C15.9931 14.8151 15.9603 14.952 15.8888 15.065C15.8172 15.178 15.7114 15.2599 15.5899 15.2962C15.4778 15.3325 15.3609 15.3484 15.244 15.3432C12.9672 15.3432 10.6904 15.3432 8.41362 15.3432C8.3227 15.3462 8.23173 15.3394 8.14206 15.3227C7.82903 15.2518 7.66312 15.0231 7.67251 14.6886C7.6819 14.3541 7.85094 14.1314 8.17024 14.0844C8.30017 14.0693 8.4309 14.0636 8.56153 14.0674H11.8406C12.9331 14.0674 14.0258 14.0674 15.1188 14.0674C15.2616 14.0607 15.4047 14.0713 15.5453 14.099C15.6691 14.1238 15.7808 14.1956 15.8606 14.3016C15.9404 14.4077 15.9831 14.5412 15.9812 14.6784Z" fill="#00B894"/>
<path d="M13.4261 24.3079C13.4186 24.6958 13.1669 24.929 12.7224 24.9306C11.2723 24.9357 9.82247 24.9357 8.37288 24.9306C7.93288 24.9306 7.67671 24.6882 7.67219 24.3029C7.66767 23.9176 7.92384 23.665 8.35857 23.6599C9.08336 23.6506 9.80815 23.6599 10.5329 23.6599C11.2577 23.6599 11.9833 23.6548 12.7081 23.6599C13.1729 23.6641 13.4329 23.9083 13.4261 24.3079Z" fill="#00B894"/>
<path d="M7.67213 8.95498C7.67213 9.35264 7.44302 9.58595 7.04173 9.58766C5.96157 9.59106 4.88118 9.59106 3.80056 9.58766C3.42534 9.58766 3.20514 9.35179 3.19691 8.9669C3.18937 8.56499 3.41711 8.3172 3.80879 8.31379C4.34315 8.30869 4.87752 8.31379 5.41257 8.31379C5.94762 8.31379 6.50393 8.31379 7.04996 8.31379C7.44782 8.3155 7.67419 8.55392 7.67213 8.95498Z" fill="#00B894"/>
</svg>
