<svg width="257" height="70" viewBox="0 0 257 70" fill="none" xmlns="http://www.w3.org/2000/svg">
<path fill-rule="evenodd" clip-rule="evenodd" d="M38.3004 0.37457C36.8696 0.394841 35.4381 0.415122 34.0057 0.435181C31.2851 0.473238 28.4553 0.396748 25.574 0.318867C23.7201 0.268756 21.8449 0.218068 19.9638 0.196947C15.1779 0.143214 10.3878 0.282517 5.95624 1.12636C5.78577 1.15883 5.65863 1.30135 5.64661 1.4735C5.60204 2.11169 5.56421 2.74995 5.53267 3.38828C3.9299 3.44013 2.3271 3.49277 0.724335 3.5462C0.517212 3.5531 0.353302 3.72271 0.354645 3.92873C0.392456 9.71138 0.925751 15.4296 1.68469 21.1119C1.6046 25.1096 1.72565 29.2398 1.97203 33.3741C2.49179 42.0954 3.57109 50.8587 4.50763 58.4629C4.60268 59.2345 4.69626 59.9943 4.78761 60.7408C4.81313 60.9493 5.00383 61.0978 5.21353 61.0724C5.42325 61.047 5.57257 60.8575 5.54706 60.649C5.45572 59.9027 5.36224 59.1437 5.26733 58.373C4.33043 50.7656 3.25401 42.0255 2.73575 33.3291C2.59796 31.0169 2.49973 28.7095 2.45404 26.4289C2.72403 28.1788 3.00754 29.9261 3.29659 31.6717C3.50664 32.9403 3.71959 34.2078 3.93245 35.4747C5.25783 43.3632 6.57924 51.2283 7.17194 59.1789C7.18663 59.3757 7.3503 59.5286 7.5488 59.531C7.74728 59.5334 7.91464 59.3844 7.9341 59.188C8.8903 49.5354 8.17085 39.8823 7.38435 30.272C7.34943 29.8452 7.31436 29.4184 7.2793 28.9917C6.66547 21.521 6.05388 14.0774 6.18886 6.65138C64.0714 5.55356 121.791 4.82747 179.717 5.8697C187.516 6.01004 195.522 6.51817 203.597 7.03066C207.062 7.25056 210.54 7.47126 214.019 7.66405C225.442 8.29708 236.87 8.62799 247.858 7.62965C247.459 14.7351 247.25 21.8348 247.058 28.9269C247.04 29.6167 247.021 30.3064 247.003 30.996C246.929 33.7375 246.855 36.4778 246.772 39.2174C246.079 41.8677 245.376 44.516 244.675 47.1613C243.016 53.4184 241.361 59.6593 239.84 65.8744C229.414 65.9701 218.975 65.1691 208.512 64.3226C207.983 64.2798 207.454 64.2369 206.924 64.194C196.893 63.3805 186.839 62.5651 176.777 62.5041C165.755 62.4373 154.752 63.0756 143.773 63.7125L143.248 63.7429C133.259 64.3222 123.29 64.8911 113.325 64.9207C105.275 64.7411 97.2238 64.6054 89.1732 64.5343C86.7958 64.4791 84.4163 64.4217 82.0351 64.3642C60.1527 63.8364 38.1342 63.3052 16.3935 64.4289C13.9842 64.4944 11.5766 64.6293 9.1731 64.8661C8.965 64.8866 8.81203 65.0694 8.82965 65.2766C8.84726 65.4837 9.02895 65.6384 9.23755 65.6238C11.6288 65.4572 14.0239 65.313 16.4222 65.1889C20.3339 65.0828 24.2579 65.1603 28.1892 65.2816C29.4022 65.319 30.6162 65.3606 31.8308 65.4022C36.9567 65.5779 42.0923 65.754 47.2043 65.617C61.1762 65.243 75.1456 65.1711 89.1136 65.2939C96.0344 65.4547 102.941 65.5971 109.821 65.6687C110.993 65.6809 112.165 65.6848 113.337 65.6813C130.549 66.0657 147.76 66.6514 164.972 67.2372C191.523 68.1408 218.076 69.0444 244.638 69.2093C244.749 69.21 244.854 69.1632 244.927 69.081C245.001 68.9988 245.034 68.8892 245.02 68.7803C244.644 65.8832 245.082 62.871 245.663 59.8099C245.773 59.2276 245.889 58.6429 246.005 58.0571C246.495 55.5834 246.988 53.0894 247.104 50.6656C247.284 46.8859 247.418 43.1062 247.534 39.3268C250.336 28.6093 252.994 17.8397 254.859 7.09342C255.189 7.15465 255.519 7.21728 255.847 7.28134C254.181 23.6156 252.267 39.9537 250.355 56.2734C249.898 60.1772 249.44 64.08 248.987 67.9815C248.962 68.1901 249.113 68.3788 249.323 68.4029C249.533 68.427 249.722 68.2774 249.747 68.0688C250.2 64.1688 250.657 60.267 251.115 56.3637C253.04 39.929 254.968 23.4689 256.643 7.01371C256.663 6.81881 256.531 6.64081 256.338 6.6025C255.889 6.51356 255.439 6.4273 254.988 6.34365C255.17 5.27295 255.344 4.2025 255.51 3.13237C255.527 3.02385 255.495 2.91341 255.424 2.82947C255.353 2.74553 255.249 2.69627 255.138 2.69436C248.768 2.58446 242.401 2.18096 236.026 1.77696C235.686 1.7554 235.345 1.73384 235.005 1.71233C228.292 1.28781 221.571 0.880165 214.85 0.834761C185.361 0.6355 155.887 0.657527 126.422 0.919409C119.122 0.696274 111.816 0.48996 104.502 0.306433C82.3514 -0.249534 60.416 0.0612417 38.3004 0.37457ZM145.669 1.54283C168.72 1.41897 191.778 1.43942 214.845 1.59529C221.542 1.64052 228.242 2.04671 234.957 2.47133C235.299 2.49295 235.64 2.51462 235.982 2.53629C242.207 2.93078 248.445 3.32607 254.687 3.44677C254.542 4.36662 254.392 5.28661 254.235 6.20673C244.823 4.5265 234.877 3.95184 224.913 3.72518C220.318 3.62066 215.727 3.59006 211.182 3.55977C205.112 3.51931 199.123 3.47939 193.311 3.26466C191.266 3.18909 189.222 3.11342 187.178 3.03777C173.326 2.52497 159.499 2.0131 145.669 1.54283ZM254.107 6.95643C244.752 5.28584 234.85 4.71195 224.895 4.48552C220.331 4.38171 215.748 4.351 211.202 4.32054C205.115 4.27976 199.095 4.23943 193.282 4.02467C191.238 3.94912 189.194 3.87346 187.151 3.79782C166.878 3.04735 146.663 2.299 126.414 1.68006C86.3534 2.03623 46.3092 2.83585 6.26468 4.12559C6.23982 4.71375 6.22014 5.30202 6.20534 5.89039C64.0798 4.79285 121.801 4.06698 179.731 5.10928C187.548 5.24995 195.583 5.75987 203.666 6.27285C207.127 6.49248 210.596 6.71267 214.061 6.90468C225.63 7.54576 237.165 7.87409 248.229 6.83151C248.34 6.82105 248.45 6.85927 248.53 6.93617C248.61 7.01307 248.653 7.12099 248.647 7.23167C248.233 14.4718 248.019 21.7084 247.823 28.9474C247.804 29.6372 247.786 30.3271 247.767 31.017C247.724 32.6442 247.68 34.2714 247.634 35.8988C250.119 26.2634 252.432 16.6041 254.107 6.95643ZM5.42352 6.66592C5.28995 14.1243 5.90334 21.5884 6.51527 29.0352C6.55086 29.4681 6.58641 29.9009 6.62183 30.3337C7.28156 38.3949 7.88889 46.4365 7.50931 54.4671C6.82253 48.0582 5.75349 41.6959 4.68626 35.3444C4.47357 34.0787 4.26097 32.8133 4.05147 31.5482C3.47356 28.058 2.91907 24.5678 2.45078 21.0691C2.55577 15.9541 2.99266 11.0732 3.91872 6.69462C4.42033 6.68503 4.92194 6.67546 5.42352 6.66592ZM1.88203 16.3896C2.1156 12.8162 2.5464 9.39923 3.23409 6.23981C3.27158 6.06751 3.42328 5.94342 3.60056 5.94003C4.21364 5.92829 4.82672 5.91659 5.43977 5.90493C5.4543 5.32002 5.47356 4.73516 5.49796 4.15035C4.03957 4.19755 2.58116 4.2454 1.12277 4.2939C1.1642 8.35069 1.44852 12.3783 1.88203 16.3896ZM6.29987 3.36352C39.8306 2.28398 73.361 1.54801 106.901 1.12823C106.095 1.10746 105.289 1.08696 104.483 1.06673C82.3478 0.51116 60.4267 0.821723 38.3077 1.13509C36.8781 1.15534 35.4478 1.1756 34.0165 1.19565C31.2857 1.23385 28.4221 1.15662 25.5246 1.07847C23.6733 1.02855 21.8082 0.978247 19.9551 0.957441C15.2883 0.905043 10.6638 1.03808 6.38983 1.81928C6.35555 2.33395 6.32564 2.8487 6.29987 3.36352ZM246.661 42.6477C246.57 45.3087 246.466 47.9693 246.34 50.6297C246.227 52.9919 245.748 55.4162 245.259 57.8857C245.142 58.4776 245.024 59.0721 244.911 59.669C244.357 62.5905 243.912 65.5558 244.211 68.446C217.843 68.2744 191.449 67.3765 165.044 66.4783C152.786 66.0613 140.526 65.6443 128.265 65.2998C133.275 65.0808 138.285 64.7926 143.293 64.5022L143.807 64.4723C154.793 63.835 165.775 63.198 176.773 63.2646C186.804 63.3254 196.832 64.1387 206.871 64.9527C207.397 64.9954 207.923 65.0381 208.45 65.0807C219.01 65.9349 229.581 66.7463 240.145 66.6319C240.32 66.6301 240.471 66.5104 240.513 66.3414C242.046 60.0631 243.721 53.7441 245.403 47.4C245.823 45.8174 246.243 44.2332 246.661 42.6477ZM58.0048 64.6256C54.3976 64.6838 50.7905 64.7602 47.1837 64.8568C42.1297 64.9921 37.0557 64.8202 31.9642 64.6458C40.6237 64.4752 49.3116 64.503 58.0048 64.6256Z" fill="#34ACE0"/>
<path d="M34.9013 36.6196C34.9013 36.1967 34.8398 35.8442 34.7169 35.5622C34.6144 35.2601 34.4197 34.968 34.1328 34.686C33.8459 34.3839 33.4257 34.0214 32.8724 33.5984C32.0116 32.9337 31.3353 32.3194 30.8435 31.7554C30.3721 31.1915 30.0339 30.6275 29.829 30.0635C29.6445 29.4794 29.5523 28.8349 29.5523 28.1299C29.5523 26.4783 30.1364 25.1792 31.3046 24.2325C32.4727 23.2657 34.0918 22.7823 36.1617 22.7823C37.1454 22.7823 38.1906 22.9536 39.2973 23.296C40.4245 23.6182 41.48 24.0613 42.4637 24.6253L40.9266 27.8882C40.0863 27.4653 39.2666 27.1128 38.4673 26.8308C37.668 26.5488 36.92 26.4078 36.2232 26.4078C35.4444 26.4078 34.8603 26.5891 34.4709 26.9517C34.0815 27.3142 33.8868 27.7775 33.8868 28.3414C33.8868 28.8248 33.9586 29.2377 34.102 29.5801C34.266 29.9225 34.5119 30.265 34.8398 30.6074C35.1882 30.9296 35.6289 31.3022 36.1617 31.7252C36.838 32.2288 37.3709 32.7222 37.7603 33.2056C38.1496 33.689 38.4263 34.1926 38.5903 34.7162C38.7747 35.2198 38.8669 35.7838 38.8669 36.4081V37.4958H34.9013V36.6196ZM36.715 45.0489C35.8953 45.0489 35.2497 44.8273 34.7783 44.3842C34.3275 43.9411 34.102 43.3268 34.102 42.5413C34.102 41.7356 34.3275 41.1213 34.7783 40.6983C35.2292 40.2552 35.8748 40.0336 36.715 40.0336C37.5553 40.0336 38.2009 40.2451 38.6518 40.6681C39.1231 41.0911 39.3588 41.7155 39.3588 42.5413C39.3588 43.3469 39.1231 43.9713 38.6518 44.4144C38.2009 44.8374 37.5553 45.0489 36.715 45.0489Z" fill="#34ACE0"/>
<path d="M65.7999 41.0306C65.9024 41.0306 65.9536 41.0709 65.9536 41.1515V44.5051C65.9536 44.6058 65.9024 44.6561 65.7999 44.6561H57.3768V21.6947H61.9573V41.0306H65.7999Z" fill="#34ACE0"/>
<path d="M71.5836 27.1027C70.9483 27.1027 70.4462 26.9114 70.0773 26.5287C69.7084 26.1259 69.524 25.5921 69.524 24.9274C69.524 24.2426 69.6982 23.7089 70.0466 23.3262C70.4155 22.9435 70.9278 22.7521 71.5836 22.7521C72.2189 22.7521 72.7108 22.9435 73.0592 23.3262C73.4281 23.7089 73.6125 24.2426 73.6125 24.9274C73.6125 25.5921 73.4281 26.1259 73.0592 26.5287C72.6903 26.9114 72.1984 27.1027 71.5836 27.1027ZM65.4968 44.6561C65.3944 44.6561 65.3431 44.6058 65.3431 44.5051V41.1515C65.3431 41.0709 65.3944 41.0306 65.4968 41.0306H69.3395V29.701H73.92V44.6561H65.4968Z" fill="#34ACE0"/>
<path d="M80.9448 51.9071C79.8996 51.9071 78.9364 51.7862 78.0551 51.5445C77.1739 51.3028 76.2517 50.8597 75.2884 50.2152L77.1329 47.2846C77.6658 47.627 78.1371 47.8586 78.547 47.9795C78.9774 48.1003 79.4795 48.1608 80.0533 48.1608C80.8731 48.1608 81.5289 47.8486 82.0208 47.2242C82.5331 46.6199 82.7893 45.8545 82.7893 44.928V29.701H87.3698V45.1395C87.3698 46.5293 87.1033 47.7277 86.5705 48.7348C86.0376 49.7419 85.2896 50.5173 84.3264 51.0612C83.3631 51.6251 82.236 51.9071 80.9448 51.9071Z" fill="#34ACE0"/>
<path d="M101.495 41.0306C101.597 41.0306 101.648 41.0709 101.648 41.1515V44.5051C101.648 44.6058 101.597 44.6561 101.495 44.6561H93.0716V21.6947H97.652V41.0306H101.495Z" fill="#34ACE0"/>
<path d="M105.372 27.1027C104.737 27.1027 104.235 26.9114 103.866 26.5287C103.497 26.1259 103.313 25.5921 103.313 24.9274C103.313 24.2426 103.497 23.7089 103.866 23.3262C104.235 22.9435 104.737 22.7521 105.372 22.7521C106.008 22.7521 106.5 22.9435 106.848 23.3262C107.217 23.7089 107.401 24.2426 107.401 24.9274C107.401 25.6122 107.217 26.146 106.848 26.5287C106.479 26.9114 105.987 27.1027 105.372 27.1027ZM110.598 27.1027C109.963 27.1027 109.461 26.9114 109.092 26.5287C108.723 26.1259 108.539 25.5921 108.539 24.9274C108.539 24.2426 108.723 23.7089 109.092 23.3262C109.461 22.9435 109.963 22.7521 110.598 22.7521C111.234 22.7521 111.726 22.9435 112.074 23.3262C112.443 23.7089 112.627 24.2426 112.627 24.9274C112.627 25.5921 112.443 26.1259 112.074 26.5287C111.705 26.9114 111.213 27.1027 110.598 27.1027ZM101.192 44.6561C101.089 44.6561 101.038 44.6058 101.038 44.5051V41.1515C101.038 41.0709 101.089 41.0306 101.192 41.0306H105.956V29.701H110.537V41.0306H115.148C115.251 41.0306 115.302 41.0709 115.302 41.1515V44.5051C115.302 44.6058 115.251 44.6561 115.148 44.6561H101.192Z" fill="#34ACE0"/>
<path d="M122.967 27.1027C122.331 27.1027 121.829 26.9114 121.46 26.5287C121.092 26.1259 120.907 25.5921 120.907 24.9274C120.907 24.2426 121.081 23.7089 121.43 23.3262C121.799 22.9435 122.311 22.7521 122.967 22.7521C123.602 22.7521 124.094 22.9435 124.442 23.3262C124.811 23.7089 124.996 24.2426 124.996 24.9274C124.996 25.5921 124.811 26.1259 124.442 26.5287C124.073 26.9114 123.582 27.1027 122.967 27.1027ZM114.851 44.6561C114.749 44.6561 114.697 44.6058 114.697 44.5051V41.1515C114.697 41.0709 114.749 41.0306 114.851 41.0306H127.271C127.004 40.7889 126.748 40.4667 126.502 40.0638C126.277 39.661 126.072 39.1776 125.887 38.6136C125.703 38.0497 125.539 37.4152 125.395 36.7103C125.252 36.0254 125.078 35.4514 124.873 34.9882C124.668 34.5048 124.422 34.1221 124.135 33.8401C123.868 33.5581 123.53 33.3567 123.12 33.2358C122.731 33.0948 122.26 33.0244 121.706 33.0244C120.989 33.0244 120.313 33.115 119.677 33.2963C119.042 33.4775 118.356 33.7696 117.618 34.1724L116.234 30.8491C117.136 30.3657 118.12 30.0031 119.186 29.7614C120.251 29.5197 121.348 29.3989 122.475 29.3989C123.131 29.3989 123.715 29.4291 124.227 29.4895C124.76 29.5499 125.242 29.6607 125.672 29.8218C126.41 30.0635 127.045 30.416 127.578 30.8793C128.111 31.3425 128.551 31.9367 128.9 32.6618C129.269 33.3668 129.535 34.2228 129.699 35.2299C129.884 36.2369 130.078 37.1232 130.283 37.8885C130.509 38.6338 130.744 39.2783 130.99 39.8221C131.257 40.3458 131.544 40.7487 131.851 41.0306H133.849C133.952 41.0306 134.003 41.0709 134.003 41.1515V44.5051C134.003 44.6058 133.952 44.6561 133.849 44.6561H114.851Z" fill="#34ACE0"/>
<path d="M138.565 27.1027C137.93 27.1027 137.427 26.9114 137.059 26.5287C136.69 26.1259 136.505 25.5921 136.505 24.9274C136.505 24.2426 136.69 23.7089 137.059 23.3262C137.427 22.9435 137.93 22.7521 138.565 22.7521C139.2 22.7521 139.692 22.9435 140.04 23.3262C140.409 23.7089 140.594 24.2426 140.594 24.9274C140.594 25.6122 140.409 26.146 140.04 26.5287C139.672 26.9114 139.18 27.1027 138.565 27.1027ZM143.791 27.1027C143.156 27.1027 142.653 26.9114 142.285 26.5287C141.916 26.1259 141.731 25.5921 141.731 24.9274C141.731 24.2426 141.916 23.7089 142.285 23.3262C142.653 22.9435 143.156 22.7521 143.791 22.7521C144.426 22.7521 144.918 22.9435 145.266 23.3262C145.635 23.7089 145.82 24.2426 145.82 24.9274C145.82 25.5921 145.635 26.1259 145.266 26.5287C144.898 26.9114 144.406 27.1027 143.791 27.1027ZM133.554 44.6561C133.452 44.6561 133.4 44.6058 133.4 44.5051V41.1515C133.4 41.0709 133.452 41.0306 133.554 41.0306H138.934V29.701H143.514V44.6561H133.554Z" fill="#34ACE0"/>
<path d="M159.658 21.6947H164.238V44.6561H159.658V21.6947Z" fill="#34ACE0"/>
<path d="M173.388 24.8972C172.752 24.8972 172.25 24.7059 171.881 24.3232C171.513 23.9203 171.328 23.3866 171.328 22.7219C171.328 22.0371 171.502 21.5034 171.851 21.1207C172.22 20.738 172.732 20.5466 173.388 20.5466C174.023 20.5466 174.515 20.738 174.863 21.1207C175.232 21.5034 175.417 22.0371 175.417 22.7219C175.417 23.3866 175.232 23.9203 174.863 24.3232C174.494 24.7059 174.003 24.8972 173.388 24.8972ZM168.684 41.0306H178.952C178.747 40.1041 178.511 39.2682 178.245 38.523C177.978 37.7576 177.702 37.093 177.415 36.529C176.8 35.3809 176.021 34.394 175.079 33.5682C174.156 32.7222 173.019 32.0273 171.666 31.4835L173.388 27.2538C175.212 27.9789 176.79 28.9658 178.122 30.2146C179.475 31.4432 180.602 32.9639 181.503 34.7767C182.405 36.5894 183.102 38.7144 183.594 41.1515V44.6561H168.684V41.0306Z" fill="#34ACE0"/>
<path d="M197.081 41.0306C197.183 41.0306 197.235 41.0709 197.235 41.1515V44.5051C197.235 44.6058 197.183 44.6561 197.081 44.6561H188.658V21.6947H193.238V41.0306H197.081Z" fill="#34ACE0"/>
<path d="M200.252 41.0306C199.985 40.4062 199.78 39.7516 199.637 39.0668C199.493 38.3619 199.422 37.6267 199.422 36.8613C199.422 35.9952 199.565 35.0587 199.852 34.0516C200.159 33.0244 200.539 32.1482 200.989 31.4231C201.973 30.8591 203.018 30.4362 204.125 30.1542C205.252 29.852 206.236 29.701 207.076 29.701C207.773 29.701 208.439 29.7816 209.074 29.9427C209.71 30.0837 210.314 30.2952 210.888 30.5771C212.036 31.1613 212.927 31.9971 213.563 33.0848C214.198 34.1523 214.516 35.4011 214.516 36.8311C214.516 37.3951 214.464 37.9389 214.362 38.4626C214.28 38.9661 214.136 39.4596 213.931 39.943C214.3 40.3458 214.721 40.6278 215.192 40.7889C215.684 40.9501 216.288 41.0306 217.006 41.0306H217.159C217.262 41.0306 217.313 41.0709 217.313 41.1515V44.5051C217.313 44.6058 217.262 44.6561 217.159 44.6561H217.006C215.919 44.6561 214.977 44.5051 214.177 44.2029C213.378 43.9008 212.63 43.3771 211.933 42.6319C211.155 43.2966 210.253 43.8001 209.228 44.1425C208.224 44.4849 207.189 44.6561 206.123 44.6561H196.778C196.675 44.6561 196.624 44.6058 196.624 44.5051V41.1515C196.624 41.0709 196.675 41.0306 196.778 41.0306H200.252ZM203.664 37.4958C203.664 37.9993 203.725 38.5532 203.848 39.1575C203.971 39.7416 204.146 40.366 204.371 41.0306H205.539C206.359 41.0306 207.097 40.8494 207.752 40.4868C208.408 40.1041 208.931 39.6006 209.32 38.9762C209.71 38.3317 209.904 37.6166 209.904 36.8311C209.904 35.7636 209.638 34.9177 209.105 34.2933C208.572 33.6487 207.865 33.3265 206.984 33.3265C206.533 33.3265 206.062 33.397 205.57 33.538C205.098 33.679 204.617 33.8904 204.125 34.1724C203.982 34.6961 203.869 35.2399 203.787 35.8039C203.705 36.3477 203.664 36.9117 203.664 37.4958Z" fill="#34ACE0"/>
<path d="M216.862 44.6561C216.759 44.6561 216.708 44.6058 216.708 44.5051V41.1515C216.708 41.0709 216.759 41.0306 216.862 41.0306H220.704V21.6947H225.285V44.6561H216.862Z" fill="#34ACE0"/>
</svg>
