<svg width="204" height="72" viewBox="0 0 204 72" fill="none" xmlns="http://www.w3.org/2000/svg">
<g filter="url(#filter0_d_129_10)">
<rect x="20" y="16" width="164" height="32" rx="5" fill="#FFB142"/>
</g>
<path d="M74.483 30.048C74.235 30.048 74.039 29.972 73.895 29.82C73.751 29.66 73.679 29.448 73.679 29.184C73.679 28.912 73.747 28.7 73.883 28.548C74.027 28.396 74.227 28.32 74.483 28.32C74.731 28.32 74.923 28.396 75.059 28.548C75.203 28.7 75.275 28.912 75.275 29.184C75.275 29.448 75.203 29.66 75.059 29.82C74.915 29.972 74.723 30.048 74.483 30.048ZM74.087 38.88C73.415 38.88 72.835 38.74 72.347 38.46C71.851 38.18 71.471 37.784 71.207 37.272C70.951 36.76 70.823 36.176 70.823 35.52C70.823 35.064 70.875 34.604 70.979 34.14C71.091 33.668 71.243 33.244 71.435 32.868H73.019C72.891 33.292 72.791 33.74 72.719 34.212C72.647 34.684 72.611 35.124 72.611 35.532C72.611 36.116 72.755 36.58 73.043 36.924C73.339 37.268 73.727 37.44 74.207 37.44H74.567C75.183 37.44 75.635 37.272 75.923 36.936C76.219 36.608 76.367 36.14 76.367 35.532V30.06H78.155V35.58C78.155 36.676 77.859 37.5 77.267 38.052C76.683 38.604 75.799 38.88 74.615 38.88H74.087ZM80.3719 27.6H82.1599V34.56H83.6599C83.6999 34.56 83.7199 34.576 83.7199 34.608V35.94C83.7199 35.98 83.6999 36 83.6599 36H80.3719V27.6ZM78.9439 26.856C78.9919 26.352 79.1239 25.968 79.3399 25.704C79.5639 25.44 79.8439 25.308 80.1799 25.308C80.3799 25.308 80.5839 25.364 80.7919 25.476C80.9999 25.58 81.1999 25.688 81.3919 25.8C81.5839 25.912 81.7599 25.968 81.9199 25.968C82.0959 25.968 82.2279 25.916 82.3159 25.812C82.4039 25.708 82.4799 25.536 82.5439 25.296H83.1559C83.1159 25.776 82.9879 26.156 82.7719 26.436C82.5559 26.708 82.2719 26.844 81.9199 26.844C81.7199 26.844 81.5159 26.788 81.3079 26.676C81.1079 26.564 80.9119 26.456 80.7199 26.352C80.5279 26.24 80.3479 26.184 80.1799 26.184C80.0039 26.184 79.8679 26.236 79.7719 26.34C79.6839 26.444 79.6119 26.616 79.5559 26.856H78.9439ZM83.5416 36C83.5016 36 83.4816 35.98 83.4816 35.94V34.608C83.4816 34.576 83.5016 34.56 83.5416 34.56H85.0416V26.88H86.8296V36H83.5416ZM89.2313 26.88H91.0193V36H89.2313V26.88ZM99.809 28.716C99.561 28.716 99.365 28.64 99.221 28.488C99.077 28.328 99.005 28.116 99.005 27.852C99.005 27.58 99.077 27.368 99.221 27.216C99.365 27.064 99.561 26.988 99.809 26.988C100.057 26.988 100.249 27.064 100.385 27.216C100.529 27.368 100.601 27.58 100.601 27.852C100.601 28.124 100.529 28.336 100.385 28.488C100.241 28.64 100.049 28.716 99.809 28.716ZM101.849 28.716C101.601 28.716 101.405 28.64 101.261 28.488C101.117 28.328 101.045 28.116 101.045 27.852C101.045 27.58 101.117 27.368 101.261 27.216C101.405 27.064 101.601 26.988 101.849 26.988C102.097 26.988 102.289 27.064 102.425 27.216C102.569 27.368 102.641 27.58 102.641 27.852C102.641 28.116 102.569 28.328 102.425 28.488C102.281 28.64 102.089 28.716 101.849 28.716ZM100.577 36C99.833 36 99.201 35.884 98.681 35.652C98.161 35.42 97.761 35.084 97.481 34.644C97.209 34.204 97.073 33.676 97.073 33.06C97.073 32.412 97.225 31.868 97.529 31.428C97.833 30.98 98.249 30.64 98.777 30.408C99.305 30.176 99.905 30.06 100.577 30.06H100.913V29.472H102.713V34.56H104.213C104.253 34.56 104.273 34.576 104.273 34.608V35.94C104.273 35.98 104.253 36 104.213 36H100.577ZM100.925 34.56V31.5H100.613C100.069 31.5 99.649 31.636 99.353 31.908C99.057 32.172 98.909 32.56 98.909 33.072C98.909 33.544 99.053 33.912 99.341 34.176C99.629 34.432 100.045 34.56 100.589 34.56H100.925ZM104.096 36C104.056 36 104.036 35.98 104.036 35.94V34.608C104.036 34.576 104.056 34.56 104.096 34.56H105.452C105.348 34.312 105.268 34.052 105.212 33.78C105.156 33.5 105.128 33.208 105.128 32.904C105.128 32.56 105.184 32.188 105.296 31.788C105.416 31.38 105.564 31.032 105.74 30.744C106.124 30.52 106.532 30.352 106.964 30.24C107.404 30.12 107.788 30.06 108.116 30.06C108.66 30.06 109.156 30.176 109.604 30.408C110.052 30.64 110.4 30.972 110.648 31.404C110.896 31.828 111.02 32.324 111.02 32.892C111.02 33.196 110.984 33.484 110.912 33.756C110.84 34.028 110.736 34.28 110.6 34.512C110.312 34.984 109.916 35.352 109.412 35.616C108.908 35.872 108.352 36 107.744 36H104.096ZM106.784 33.156C106.784 33.356 106.808 33.576 106.856 33.816C106.904 34.048 106.972 34.296 107.06 34.56H107.516C107.836 34.56 108.124 34.488 108.38 34.344C108.636 34.192 108.84 33.992 108.992 33.744C109.144 33.488 109.22 33.204 109.22 32.892C109.22 32.468 109.116 32.132 108.908 31.884C108.7 31.628 108.424 31.5 108.08 31.5C107.904 31.5 107.72 31.528 107.528 31.584C107.344 31.64 107.156 31.724 106.964 31.836C106.908 32.044 106.864 32.26 106.832 32.484C106.8 32.7 106.784 32.924 106.784 33.156ZM112.22 34.56H116.228C116.148 34.192 116.056 33.86 115.952 33.564C115.848 33.26 115.74 32.996 115.628 32.772C115.388 32.316 115.084 31.924 114.716 31.596C114.356 31.26 113.912 30.984 113.384 30.768L114.056 29.088C114.76 29.368 115.372 29.752 115.892 30.24C116.412 30.72 116.848 31.316 117.2 32.028C117.552 32.74 117.828 33.584 118.028 34.56H119.6C119.64 34.56 119.66 34.576 119.66 34.608V35.94C119.66 35.98 119.64 36 119.6 36H112.22V34.56ZM122.651 29.028C122.403 29.028 122.207 28.952 122.063 28.8C121.919 28.64 121.847 28.428 121.847 28.164C121.847 27.892 121.915 27.68 122.051 27.528C122.195 27.376 122.395 27.3 122.651 27.3C122.899 27.3 123.091 27.376 123.227 27.528C123.371 27.68 123.443 27.892 123.443 28.164C123.443 28.428 123.371 28.64 123.227 28.8C123.083 28.952 122.891 29.028 122.651 29.028ZM119.483 36C119.443 36 119.423 35.98 119.423 35.94V34.608C119.423 34.576 119.443 34.56 119.483 34.56H124.331C124.227 34.464 124.127 34.336 124.031 34.176C123.943 34.016 123.863 33.824 123.791 33.6C123.719 33.376 123.655 33.124 123.599 32.844C123.543 32.572 123.475 32.344 123.395 32.16C123.315 31.968 123.219 31.816 123.107 31.704C123.003 31.592 122.871 31.512 122.711 31.464C122.559 31.408 122.375 31.38 122.159 31.38C121.879 31.38 121.615 31.416 121.367 31.488C121.119 31.56 120.851 31.676 120.563 31.836L120.023 30.516C120.375 30.324 120.759 30.18 121.175 30.084C121.591 29.988 122.019 29.94 122.459 29.94C122.715 29.94 122.943 29.952 123.143 29.976C123.351 30 123.539 30.044 123.707 30.108C123.995 30.204 124.243 30.344 124.451 30.528C124.659 30.712 124.831 30.948 124.967 31.236C125.111 31.516 125.215 31.856 125.279 32.256C125.351 32.656 125.427 33.008 125.507 33.312C125.595 33.608 125.687 33.864 125.783 34.08C125.887 34.288 125.999 34.448 126.119 34.56H126.899C126.939 34.56 126.959 34.576 126.959 34.608V35.94C126.959 35.98 126.939 36 126.899 36H119.483ZM126.784 36C126.744 36 126.724 35.98 126.724 35.94V34.608C126.724 34.576 126.744 34.56 126.784 34.56H128.284V26.88H130.072V36H126.784ZM132.473 26.88H134.261V36H132.473V26.88ZM144.875 39C144.627 39 144.431 38.92 144.287 38.76C144.143 38.608 144.071 38.4 144.071 38.136C144.071 37.872 144.139 37.66 144.275 37.5C144.419 37.348 144.619 37.272 144.875 37.272C145.123 37.272 145.315 37.348 145.451 37.5C145.595 37.652 145.667 37.86 145.667 38.124C145.667 38.396 145.595 38.608 145.451 38.76C145.307 38.92 145.115 39 144.875 39ZM142.703 36C141.967 36 141.383 35.788 140.951 35.364C140.527 34.932 140.315 34.34 140.315 33.588C140.315 33.388 140.331 33.176 140.363 32.952C140.395 32.728 140.439 32.512 140.495 32.304C140.559 32.096 140.627 31.912 140.699 31.752H142.283C142.227 32.008 142.183 32.268 142.151 32.532C142.119 32.796 142.103 33.06 142.103 33.324C142.103 33.692 142.207 33.992 142.415 34.224C142.623 34.448 142.895 34.56 143.231 34.56H147.131V30.06H148.919V34.56H150.479C150.519 34.56 150.539 34.576 150.539 34.608V35.94C150.539 35.98 150.519 36 150.479 36H142.703ZM150.362 36C150.322 36 150.302 35.98 150.302 35.94V34.608C150.302 34.576 150.322 34.56 150.362 34.56H151.862V26.88H153.65V34.56H155.21C155.25 34.56 155.27 34.576 155.27 34.608V35.94C155.27 35.98 155.25 36 155.21 36H150.362ZM155.085 36C155.045 36 155.025 35.98 155.025 35.94V34.608C155.025 34.576 155.045 34.56 155.085 34.56H156.861V26.88H158.649V32.16C158.889 31.664 159.169 31.252 159.489 30.924C159.817 30.596 160.181 30.352 160.581 30.192C160.981 30.024 161.421 29.94 161.901 29.94C162.885 29.94 163.625 30.2 164.121 30.72C164.625 31.24 164.877 32.04 164.877 33.12V36H155.085ZM163.089 34.56V33.084C163.089 32.5 162.953 32.072 162.681 31.8C162.417 31.52 162.005 31.38 161.445 31.38C161.085 31.38 160.741 31.464 160.413 31.632C160.085 31.8 159.773 32.052 159.477 32.388C159.189 32.716 158.913 33.128 158.649 33.624V34.56H163.089ZM166.973 26.88H168.761V36H166.973V26.88Z" fill="white"/>
<path d="M40.6717 32.3583L40.3037 32L40.6717 31.6417L45.4061 27.0327C45.5313 26.9108 45.5313 26.7188 45.4061 26.5969C45.2734 26.4677 45.0528 26.4677 44.9201 26.5969L39.5939 31.7821C39.4687 31.904 39.4687 32.096 39.5939 32.2179L44.9201 37.4031C45.0528 37.5323 45.2734 37.5323 45.4061 37.4031C45.5313 37.2812 45.5313 37.0892 45.4061 36.9673L40.6717 32.3583Z" fill="#D9D9D9" stroke="white"/>
<defs>
<filter id="filter0_d_129_10" x="0" y="0" width="204" height="72" filterUnits="userSpaceOnUse" color-interpolation-filters="sRGB">
<feFlood flood-opacity="0" result="BackgroundImageFix"/>
<feColorMatrix in="SourceAlpha" type="matrix" values="0 0 0 0 0 0 0 0 0 0 0 0 0 0 0 0 0 0 127 0" result="hardAlpha"/>
<feOffset dy="4"/>
<feGaussianBlur stdDeviation="10"/>
<feComposite in2="hardAlpha" operator="out"/>
<feColorMatrix type="matrix" values="0 0 0 0 0 0 0 0 0 0 0 0 0 0 0 0 0 0 0.05 0"/>
<feBlend mode="normal" in2="BackgroundImageFix" result="effect1_dropShadow_129_10"/>
<feBlend mode="normal" in="SourceGraphic" in2="effect1_dropShadow_129_10" result="shape"/>
</filter>
</defs>
</svg>
