<svg width="25" height="36" viewBox="0 0 25 36" fill="none" xmlns="http://www.w3.org/2000/svg">
<path d="M24.645 11.8102C24.486 11.5187 24.2926 11.2491 24.0692 11.0075C23.4296 10.3679 23.3434 9.64947 23.5072 8.75903C23.8382 6.95487 23.4314 5.99814 22.0436 5.51261C20.8472 5.09158 20.1335 4.39463 19.7594 3.1172C19.3853 1.83977 18.413 1.236 17.1959 1.55849C15.8702 1.91682 14.9203 1.52266 13.9532 0.63222C13.036 -0.211636 11.9965 -0.209844 11.088 0.63222C10.1208 1.52803 9.16232 1.90248 7.84178 1.55132C6.66261 1.23779 5.68168 1.81648 5.33862 2.99537C4.93005 4.39463 4.12152 5.14532 2.81133 5.5789C1.75628 5.92289 1.23565 6.96203 1.4701 8.08717C1.74076 9.39864 1.56837 10.4736 0.632268 11.4913C-0.248665 12.4534 -0.165914 13.5265 0.613307 14.5944C0.806652 14.8897 1.0198 15.1705 1.25116 15.4346C1.64594 15.8449 1.68387 16.3304 1.60802 16.8518C1.55285 17.2262 1.5063 17.6025 1.45631 17.9769C1.30116 19.1236 1.78903 20.0445 2.80788 20.5139C3.19921 20.693 3.60261 20.8489 3.9974 21.0191C4.8766 21.4025 5.37655 22.6925 5.00763 23.5991C3.9204 26.2471 2.83316 28.8945 1.74593 31.5413C1.55975 31.9928 1.4339 32.4371 1.80282 32.8528C2.17175 33.2685 2.56653 33.1699 2.99924 33.014C3.62848 32.7883 4.27151 32.6056 4.89557 32.3673C5.27484 32.2204 5.46792 32.3135 5.63514 32.6951C5.90235 33.3043 6.23335 33.8812 6.52469 34.4868C6.73674 34.9221 6.97636 35.3181 7.52113 35.293C8.06589 35.2679 8.26587 34.8433 8.44689 34.3972C9.09854 32.7931 9.75248 31.1908 10.4087 29.5903C10.9035 28.3827 11.4017 27.1769 11.8827 26.007H13.1601C14.3203 28.8539 15.4599 31.6936 16.6511 34.5118C16.7907 34.8397 17.2045 35.2285 17.5131 35.2428C17.8217 35.2572 18.2302 34.9024 18.4233 34.5925C18.8767 33.8669 19.225 33.0696 19.6508 32.2347C20.5455 32.5267 21.3747 32.8456 22.2229 33.0552C22.528 33.1287 23.009 33.0553 23.2004 32.8349C23.3917 32.6145 23.3503 32.1541 23.3727 31.7957C23.3727 31.6775 23.2814 31.5503 23.2297 31.4267C22.1505 28.8019 21.0644 26.1772 19.9973 23.5435C19.8854 23.2879 19.8494 23.0035 19.8938 22.7265C20.1128 21.7788 20.5334 20.9904 21.5781 20.7934C21.7846 20.7342 21.9836 20.65 22.1712 20.5425C23.2745 20.0373 23.8055 19.1612 23.5503 17.9214C23.29 16.6207 23.4348 15.5117 24.4209 14.5979C24.5103 14.501 24.5858 14.3912 24.645 14.2719C24.8766 13.9065 25 13.4785 25 13.041C25 12.6035 24.8766 12.1756 24.645 11.8102ZM7.40563 32.1953C7.12635 31.6578 6.89879 31.2403 6.68847 30.8139C6.40919 30.2442 5.98683 30.0758 5.40758 30.2764C5.00418 30.4162 4.59388 30.538 4.03877 30.7172C4.91798 28.5672 5.7403 26.5696 6.52986 24.649C7.48837 24.5379 8.39172 24.3802 9.30024 24.3569C9.65364 24.3569 10.0157 24.6418 10.426 24.8209C9.40367 27.3095 8.42275 29.6942 7.4039 32.1953H7.40563ZM20.9903 30.7064C20.4472 30.5273 20.0231 30.4018 19.6008 30.2639C19.0508 30.0847 18.6336 30.2388 18.363 30.7853C18.1458 31.217 17.9199 31.6452 17.6355 32.1971C16.6201 29.7192 15.6512 27.3471 14.6876 24.9965C15.1668 24.09 15.9253 24.3892 16.627 24.4483C17.2183 24.5002 17.8096 24.5468 18.4802 24.6024C19.2836 26.5373 20.1059 28.5583 20.9885 30.7064H20.9903ZM22.1263 14.5818C21.4264 15.4776 21.5057 16.4272 21.6661 17.4305C21.6971 17.6276 21.7143 17.8282 21.754 18.0235C21.8522 18.5001 21.6833 18.7957 21.2282 18.9193C21.1247 18.948 21.0334 19.0179 20.9299 19.0429C19.5232 19.3887 18.6992 20.3168 18.2733 21.7304C17.9044 22.9559 17.7975 22.8269 16.9252 22.5707C15.353 22.1084 14.1204 22.7265 13.0239 23.8248C12.6792 24.1688 12.3775 24.2082 12.0396 23.8338C11.9379 23.7209 11.7775 23.6689 11.6775 23.5561C10.6104 22.3628 9.29851 22.2553 7.88488 22.6459C7.34529 22.7946 7.0074 22.662 6.8781 22.0744C6.86431 22.0117 6.81431 21.9561 6.80052 21.8952C6.44194 20.3347 5.4955 19.369 4.01119 19.0035C3.27852 18.8244 3.18887 18.3603 3.3061 17.7172C3.38023 17.3015 3.44746 16.884 3.49573 16.463C3.57848 15.7464 3.32334 15.1605 2.91649 14.6087C1.77179 13.0643 1.7511 13.041 2.91649 11.5163C3.5509 10.6904 3.53538 9.80176 3.39057 8.85936C3.38195 8.79307 3.36127 8.72857 3.3492 8.66408C3.13715 7.49952 3.11991 7.39381 4.19393 7.06774C5.63169 6.62879 6.41953 5.65773 6.79191 4.22264C6.95396 3.60094 7.25047 3.24083 7.94522 3.50599C8.20036 3.60273 8.49516 3.58124 8.76754 3.63678C9.86052 3.85894 10.7087 3.39849 11.5258 2.69617C12.6102 1.76453 12.4585 1.7072 13.4739 2.69617C14.6272 3.81952 15.9029 3.77115 17.2545 3.47015C17.7458 3.36086 17.9906 3.5042 18.1165 3.96644C18.1165 3.98794 18.1303 4.00943 18.1354 4.03093C18.5423 5.71148 19.5318 6.76853 21.1678 7.20569C21.7781 7.36873 21.7591 7.44756 21.7419 8.04059C21.7075 8.48958 21.6499 8.93634 21.5695 9.37893C21.3816 10.2192 21.6471 10.9018 22.1298 11.5486C23.2797 13.05 23.3021 13.0786 22.1246 14.5729L22.1263 14.5818Z" fill="#00B894"/>
<path d="M17.6228 11.8017C17.5121 11.4959 17.0793 11.2077 16.7385 11.121C15.9376 10.9195 15.1026 10.8647 14.2915 10.702C14.0638 10.6421 13.8679 10.4916 13.7463 10.283C13.3373 9.51218 12.9982 8.69184 12.5927 7.92984C12.1871 7.16784 11.3487 7.1537 10.9296 7.92984C10.623 8.45838 10.3618 9.0139 10.1491 9.58997C9.85606 10.474 9.33294 10.8806 8.42301 10.8718C7.87016 10.8689 7.32017 10.9541 6.79229 11.1246C6.45149 11.236 6.01868 11.5012 5.90622 11.8088C5.80909 12.074 6.0255 12.5672 6.24702 12.8324C6.77525 13.4618 7.40914 13.994 7.951 14.611C8.12503 14.835 8.20924 15.1199 8.18615 15.4066C8.08221 16.3012 7.9067 17.187 7.75845 18.0763C7.70904 18.8701 8.36336 19.351 9.07052 19.0027C9.83731 18.6243 10.5649 18.1647 11.3368 17.8022C11.6107 17.6908 11.915 17.6908 12.1888 17.8022C12.9215 18.1417 13.6031 18.6084 14.3444 18.9302C14.6494 19.061 15.152 19.084 15.3821 18.9037C15.6121 18.7233 15.7348 18.2195 15.7058 17.8747C15.636 17.0455 15.4213 16.2287 15.3293 15.3995C15.3103 15.1118 15.3988 14.8276 15.5763 14.6057C16.1216 13.9905 16.7572 13.4601 17.2803 12.8377C17.5087 12.5655 17.72 12.0704 17.6228 11.8017ZM13.7906 16.4992C13.005 16.1456 12.3899 15.6594 11.773 15.6594C11.1562 15.6594 10.5359 16.1492 9.73848 16.5045C10.3758 14.9134 10.0946 13.651 8.61385 12.7105C10.3042 12.7653 11.3402 12.0333 11.7475 10.306C12.2178 11.9644 13.172 12.8095 14.9101 12.668C13.5213 13.6475 13.0936 14.8692 13.7906 16.4992Z" fill="#00B894"/>
</svg>
