<svg width="138" height="43" viewBox="0 0 138 43" fill="none" xmlns="http://www.w3.org/2000/svg">
<path d="M3.43121 3.18152e-06C2.75331 -0.000920394 2.09036 0.199257 1.52626 0.575208C0.96215 0.951159 0.522236 1.48599 0.262173 2.11203C0.00211049 2.73806 -0.0664128 3.42717 0.0652734 4.09216C0.19696 4.75715 0.522937 5.36814 1.00196 5.84782C1.48099 6.3275 2.09153 6.65431 2.75634 6.7869C3.42115 6.91949 4.11035 6.85191 4.73674 6.5927C5.36313 6.33349 5.89856 5.8943 6.27528 5.33071C6.652 4.76712 6.85308 4.10445 6.85308 3.42654C6.84578 2.52083 6.48306 1.65422 5.84305 1.01333C5.20303 0.372438 4.33691 0.00854154 3.43121 3.18152e-06Z" fill="#34ACE0"/>
<path d="M6.2836 8.50565H0.574249V27.5243H6.2836V8.50565Z" fill="#34ACE0"/>
<path d="M21.6096 7.97348C19.1027 7.97348 17.198 8.90714 16.1757 10.3076V8.50567H10.4663V27.543H16.1757V17.1374C16.1757 14.4391 17.6182 13.2207 19.7096 13.2207C21.5349 13.2207 23.0194 14.3224 23.0194 16.6799V27.543H28.7241V15.8723C28.7241 10.7091 25.4563 7.97348 21.6096 7.97348Z" fill="#34ACE0"/>
<path d="M43.7934 14.0049V8.50565H39.872V3.17911L34.1627 4.88771V8.50565H31.119V14.0049H34.1627V20.7366C34.1627 26.0632 36.3288 28.3086 43.7841 27.5477V22.3519C41.2772 22.5012 39.872 22.3519 39.872 20.7133V14.0049H43.7934Z" fill="#34ACE0"/>
<path d="M70.823 7.97348C68.1247 7.97348 66.3787 8.95849 65.3097 10.4804C64.2453 8.8838 62.5694 7.97348 60.3239 7.97348C57.7797 7.97348 56.1224 8.95849 55.2308 10.2516V8.50567H49.5261V27.543H55.2308V16.8059C55.2308 14.5605 56.2952 13.23 58.1952 13.23C60.0952 13.23 60.9355 14.4484 60.9355 16.3484V27.5524H66.6682V16.8059C66.6682 14.5605 67.7279 13.23 69.6279 13.23C71.5279 13.23 72.3682 14.4484 72.3682 16.3484V27.5524H78.0775V15.8816C78.0542 11.0919 75.2018 7.97348 70.823 7.97348Z" fill="#34ACE0"/>
<path d="M95.7751 8.50566V10.2936C94.5193 8.84645 92.6613 7.95947 90.1124 7.95947C85.122 7.95947 81.0186 12.3337 81.0186 18.001C81.0186 23.6683 85.122 28.0426 90.1124 28.0426C92.6613 28.0426 94.5193 27.1649 95.7751 25.7084V27.543H101.484V8.50566H95.7751ZM91.2468 22.6553C88.6232 22.6553 86.7279 20.8674 86.7279 18.015C86.7279 15.1627 88.6232 13.3747 91.2468 13.3747C93.8704 13.3747 95.7751 15.1627 95.7751 18.015C95.7751 20.8674 93.8751 22.6553 91.2468 22.6553Z" fill="#34ACE0"/>
<path d="M111.372 11.8902V8.5057H105.663V27.5431H111.372V18.9254C111.372 15.1627 114.719 14.2104 117.072 14.5885V8.12289C114.677 8.12289 112.133 9.33666 111.372 11.8902Z" fill="#34ACE0"/>
<path d="M119.742 0.896301V27.5057H125.442V0.896301H119.742Z" fill="#34ACE0"/>
<path d="M138 27.5243H131.53L125.442 19.1167V16.8339L131.152 8.50565H137.804L130.885 18.015L138 27.5243Z" fill="#FFB142"/>
<path d="M6.2836 23.0148H0.574249V27.5244H6.2836V23.0148Z" fill="#FFB142"/>
<path d="M51.5195 35.6659V36.8797H53.8537V38.2802H51.5195V40.6143H50.0677V34.2701H53.9237V35.6706L51.5195 35.6659Z" fill="#FFB142"/>
<path d="M54.5305 38.3502C54.5287 37.8741 54.6682 37.4081 54.9315 37.0114C55.1947 36.6148 55.5699 36.3052 56.0093 36.1219C56.4487 35.9386 56.9326 35.89 57.3997 35.982C57.8668 36.0741 58.2961 36.3028 58.633 36.6392C58.97 36.9755 59.1996 37.4043 59.2926 37.8712C59.3856 38.3381 59.3378 38.8222 59.1554 39.2619C58.973 39.7017 58.6642 40.0774 58.268 40.3414C57.8718 40.6055 57.4061 40.7459 56.93 40.745C56.6145 40.7481 56.3014 40.6883 56.0092 40.5691C55.717 40.4499 55.4514 40.2737 55.2281 40.0508C55.0047 39.8278 54.828 39.5626 54.7082 39.2707C54.5884 38.9787 54.528 38.6657 54.5305 38.3502ZM57.9757 38.3502C57.9712 38.1444 57.9059 37.9446 57.7883 37.7757C57.6706 37.6068 57.5057 37.4764 57.3143 37.4009C57.1229 37.3253 56.9134 37.3079 56.7121 37.3508C56.5108 37.3938 56.3267 37.4951 56.1828 37.6423C56.0388 37.7894 55.9415 37.9757 55.9031 38.1779C55.8646 38.3801 55.8866 38.5892 55.9664 38.7789C56.0462 38.9686 56.1802 39.1306 56.3516 39.2445C56.523 39.3584 56.7242 39.4191 56.93 39.4192C57.0689 39.4207 57.2066 39.3937 57.3346 39.3399C57.4627 39.2862 57.5784 39.2068 57.6746 39.1066C57.7708 39.0065 57.8455 38.8877 57.8941 38.7576C57.9426 38.6275 57.9641 38.4888 57.9571 38.3502H57.9757Z" fill="#FFB142"/>
<path d="M62.8075 35.9927V37.5332C62.2473 37.4445 61.449 37.6686 61.449 38.5696V40.6143H60.0859V36.0814H61.449V36.8797C61.5499 36.6053 61.7366 36.3709 61.9813 36.2111C62.226 36.0513 62.5158 35.9747 62.8075 35.9927Z" fill="#FFB142"/>
<path d="M70.3608 34.2701V40.6143H69.0023V40.1895C68.8317 40.3763 68.6218 40.5231 68.3877 40.6191C68.1537 40.7152 67.9012 40.7582 67.6485 40.7451C67.058 40.6811 66.512 40.4012 66.1152 39.9592C65.7185 39.5172 65.4991 38.9442 65.4991 38.3502C65.4991 37.7563 65.7185 37.1832 66.1152 36.7412C66.512 36.2992 67.058 36.0193 67.6485 35.9554C67.9012 35.9423 68.1537 35.9853 68.3877 36.0813C68.6218 36.1774 68.8317 36.3241 69.0023 36.5109V34.2701H70.3608ZM69.0023 38.3502C68.9977 38.1371 68.9303 37.93 68.8086 37.755C68.6868 37.58 68.5161 37.4448 68.3178 37.3664C68.1196 37.288 67.9026 37.2698 67.694 37.3142C67.4855 37.3586 67.2947 37.4636 67.1456 37.6159C66.9965 37.7683 66.8956 37.9613 66.8557 38.1707C66.8157 38.3801 66.8385 38.5967 66.9211 38.7932C67.0037 38.9898 67.1425 39.1576 67.3201 39.2756C67.4976 39.3936 67.7061 39.4566 67.9193 39.4566C68.0654 39.4635 68.2112 39.4395 68.3474 39.386C68.4835 39.3325 68.6067 39.2509 68.709 39.1464C68.8113 39.0419 68.8903 38.9169 68.9409 38.7797C68.9914 38.6425 69.0124 38.4961 69.0023 38.3502Z" fill="#34ACE0"/>
<path d="M71.2198 34.8676C71.2198 34.706 71.2677 34.5481 71.3575 34.4137C71.4472 34.2794 71.5748 34.1747 71.7241 34.1128C71.8734 34.051 72.0377 34.0348 72.1961 34.0664C72.3546 34.0979 72.5002 34.1757 72.6144 34.2899C72.7287 34.4042 72.8065 34.5498 72.838 34.7082C72.8695 34.8667 72.8533 35.031 72.7915 35.1802C72.7297 35.3295 72.625 35.4571 72.4906 35.5469C72.3563 35.6366 72.1983 35.6846 72.0367 35.6846C71.8208 35.6821 71.6144 35.5953 71.4618 35.4426C71.3091 35.2899 71.2222 35.0835 71.2198 34.8676ZM71.3552 36.0814H72.737V40.6143H71.3365L71.3552 36.0814Z" fill="#34ACE0"/>
<path d="M78.3669 36.0814V40.3903C78.3669 41.9121 77.1765 42.5564 75.9721 42.5564C75.5482 42.5863 75.1242 42.4999 74.7458 42.3066C74.3673 42.1133 74.0489 41.8203 73.8247 41.4593L74.9824 40.7871C75.0754 40.9744 75.2227 41.1294 75.4051 41.2318C75.5874 41.3342 75.7964 41.3793 76.0048 41.3613C76.139 41.38 76.2757 41.3683 76.4047 41.3269C76.5338 41.2855 76.6518 41.2156 76.7501 41.1223C76.8483 41.0289 76.9243 40.9147 76.9722 40.7879C77.0202 40.6612 77.039 40.5252 77.0271 40.3903V39.9748C76.8678 40.1687 76.6654 40.3229 76.4361 40.425C76.2068 40.5271 75.9568 40.5743 75.706 40.563C75.1129 40.5363 74.553 40.2819 74.1428 39.8528C73.7325 39.4236 73.5036 38.8528 73.5036 38.2592C73.5036 37.6655 73.7325 37.0947 74.1428 36.6656C74.553 36.2364 75.1129 35.9821 75.706 35.9554C75.9568 35.944 76.2068 35.9912 76.4361 36.0933C76.6654 36.1954 76.8678 36.3496 77.0271 36.5436V36.0767L78.3669 36.0814ZM77.0411 38.2802C77.0495 38.0616 76.9924 37.8455 76.877 37.6597C76.7617 37.4738 76.5934 37.3267 76.3938 37.2372C76.1943 37.1477 75.9725 37.1199 75.757 37.1573C75.5415 37.1948 75.3421 37.2958 75.1845 37.4474C75.0268 37.5991 74.9181 37.7943 74.8722 38.0082C74.8264 38.2221 74.8455 38.4448 74.9272 38.6477C75.0088 38.8506 75.1493 39.0245 75.3305 39.147C75.5117 39.2695 75.7254 39.3351 75.9441 39.3352C76.0871 39.3451 76.2306 39.3248 76.3654 39.2759C76.5001 39.2269 76.6231 39.1502 76.7265 39.0509C76.8298 38.9515 76.9112 38.8316 76.9654 38.6988C77.0196 38.5661 77.0454 38.4235 77.0411 38.2802Z" fill="#34ACE0"/>
<path d="M79.226 34.8676C79.226 34.706 79.2739 34.5481 79.3636 34.4137C79.4534 34.2794 79.581 34.1747 79.7303 34.1128C79.8796 34.051 80.0438 34.0348 80.2023 34.0664C80.3608 34.0979 80.5063 34.1757 80.6206 34.2899C80.7348 34.4042 80.8126 34.5498 80.8442 34.7082C80.8757 34.8667 80.8595 35.031 80.7977 35.1802C80.7358 35.3295 80.6311 35.4571 80.4968 35.5469C80.3624 35.6366 80.2045 35.6846 80.0429 35.6846C79.827 35.6821 79.6206 35.5953 79.4679 35.4426C79.3152 35.2899 79.2284 35.0835 79.226 34.8676ZM79.3613 36.0814H80.7245V40.6143H79.3613V36.0814Z" fill="#34ACE0"/>
<path d="M83.4414 37.3885V38.9944C83.4414 39.3819 83.7776 39.4192 84.3751 39.3819V40.6143C82.6011 40.7964 82.083 40.2642 82.083 38.9944V37.3885H81.3594V36.0814H82.0736V35.2224L83.4321 34.8116V36.0814H84.3658V37.3885H83.4414Z" fill="#34ACE0"/>
<path d="M89.7109 36.0814V40.6143H88.3478V40.1895C88.1783 40.3765 87.9693 40.5233 87.7359 40.6194C87.5025 40.7155 87.2507 40.7584 86.9987 40.745C86.4082 40.6811 85.8621 40.4012 85.4654 39.9592C85.0686 39.5172 84.8492 38.9441 84.8492 38.3502C84.8492 37.7562 85.0686 37.1832 85.4654 36.7412C85.8621 36.2992 86.4082 36.0193 86.9987 35.9553C87.2507 35.9419 87.5025 35.9848 87.7359 36.0809C87.9693 36.177 88.1783 36.3239 88.3478 36.5109V36.0814H89.7109ZM88.3478 38.3502C88.3423 38.1382 88.2744 37.9325 88.1526 37.7589C88.0308 37.5853 87.8605 37.4514 87.6631 37.3741C87.4656 37.2967 87.2497 37.2793 87.0424 37.3241C86.8351 37.3688 86.6456 37.4736 86.4975 37.6255C86.3495 37.7774 86.2496 37.9695 86.2102 38.1779C86.1708 38.3863 86.1937 38.6017 86.2761 38.7971C86.3585 38.9925 86.4966 39.1593 86.6733 39.2766C86.85 39.3939 87.0573 39.4565 87.2694 39.4566C87.4151 39.4628 87.5605 39.4383 87.696 39.3845C87.8316 39.3307 87.9542 39.2489 88.056 39.1445C88.1578 39.0401 88.2364 38.9154 88.2867 38.7785C88.337 38.6416 88.3578 38.4957 88.3478 38.3502Z" fill="#34ACE0"/>
<path d="M90.7053 33.9993H92.0685V40.6143H90.7053V33.9993Z" fill="#34ACE0"/>
<path d="M102.147 37.8133V40.6143H100.789V37.9487C100.789 37.4818 100.57 37.2064 100.135 37.2064C99.7012 37.2064 99.4304 37.5239 99.4304 38.0607V40.6143H98.0673V37.9487C98.0673 37.4818 97.8526 37.2064 97.4184 37.2064C96.9842 37.2064 96.7088 37.5239 96.7088 38.0607V40.6143H95.3317V36.0813H96.6901V36.5015C96.8313 36.3169 97.0161 36.1704 97.228 36.075C97.4399 35.9797 97.6722 35.9385 97.9039 35.9553C98.1369 35.9443 98.3689 35.9935 98.5774 36.0982C98.7859 36.2028 98.9639 36.3594 99.0943 36.5529C99.2451 36.351 99.4444 36.1904 99.6737 36.086C99.9029 35.9815 100.155 35.9366 100.406 35.9553C101.452 35.946 102.147 36.6976 102.147 37.8133Z" fill="#34ACE0"/>
<path d="M107.717 36.0814V40.6143H106.349V40.1895C106.179 40.3765 105.97 40.5233 105.737 40.6194C105.504 40.7155 105.252 40.7584 105 40.745C104.409 40.6811 103.863 40.4012 103.466 39.9592C103.07 39.5172 102.85 38.9441 102.85 38.3502C102.85 37.7562 103.07 37.1832 103.466 36.7412C103.863 36.2992 104.409 36.0193 105 35.9553C105.252 35.9419 105.504 35.9848 105.737 36.0809C105.97 36.177 106.179 36.3239 106.349 36.5109V36.0814H107.717ZM106.349 38.3502C106.343 38.1382 106.275 37.9325 106.154 37.7589C106.032 37.5853 105.862 37.4514 105.664 37.3741C105.467 37.2967 105.251 37.2793 105.043 37.3241C104.836 37.3688 104.647 37.4736 104.499 37.6255C104.351 37.7774 104.251 37.9695 104.211 38.1779C104.172 38.3863 104.195 38.6017 104.277 38.7971C104.359 38.9925 104.498 39.1593 104.674 39.2766C104.851 39.3939 105.058 39.4565 105.27 39.4566C105.416 39.4628 105.562 39.4383 105.697 39.3845C105.833 39.3307 105.955 39.2489 106.057 39.1445C106.159 39.0401 106.237 38.9154 106.288 38.7785C106.338 38.6416 106.359 38.4957 106.349 38.3502Z" fill="#34ACE0"/>
<path d="M111.433 35.9926V37.5332C110.872 37.4445 110.074 37.6686 110.074 38.5695V40.6143H108.711V36.0813H110.084V36.8796C110.185 36.6073 110.37 36.3744 110.613 36.2149C110.855 36.0553 111.143 35.9775 111.433 35.9926Z" fill="#34ACE0"/>
<path d="M114.878 40.6143L113.426 38.6116V40.6143H112.068V34.2701H113.426V38.0701L114.789 36.0814H116.376L114.724 38.3502L116.418 40.6143H114.878Z" fill="#34ACE0"/>
<path d="M118.953 39.5266C119.114 39.5313 119.274 39.5035 119.424 39.445C119.574 39.3864 119.711 39.2983 119.826 39.1858L120.914 39.8114C120.687 40.1191 120.388 40.3655 120.042 40.5285C119.697 40.6915 119.316 40.7659 118.935 40.745C118.299 40.758 117.685 40.5182 117.227 40.0783C116.768 39.6383 116.504 39.0344 116.491 38.3992C116.478 37.7641 116.718 37.1498 117.157 36.6914C117.597 36.2331 118.201 35.9684 118.836 35.9554C119.147 35.9531 119.455 36.0142 119.742 36.135C120.028 36.2558 120.287 36.4336 120.502 36.6577C120.718 36.8819 120.885 37.1475 120.994 37.4385C121.104 37.7295 121.153 38.0397 121.138 38.3502C121.138 38.5319 121.121 38.7133 121.087 38.8917H117.865C117.951 39.1028 118.104 39.2795 118.301 39.3944C118.498 39.5092 118.727 39.5557 118.953 39.5266ZM119.789 37.8787C119.724 37.6709 119.594 37.4892 119.419 37.3603C119.243 37.2313 119.031 37.1617 118.813 37.1617C118.595 37.1617 118.383 37.2313 118.208 37.3603C118.032 37.4892 117.903 37.6709 117.837 37.8787H119.789Z" fill="#34ACE0"/>
<path d="M123.491 37.3885V38.9944C123.491 39.3819 123.827 39.4192 124.425 39.3819V40.6143C122.651 40.7964 122.132 40.2642 122.132 38.9944V37.3885H121.404V36.0814H122.132V35.2224L123.491 34.8116V36.0814H124.425V37.3885H123.491Z" fill="#34ACE0"/>
<path d="M125.059 34.8676C125.059 34.706 125.107 34.5481 125.197 34.4137C125.287 34.2794 125.414 34.1747 125.564 34.1128C125.713 34.051 125.877 34.0348 126.036 34.0664C126.194 34.0979 126.34 34.1757 126.454 34.2899C126.568 34.4042 126.646 34.5498 126.678 34.7082C126.709 34.8667 126.693 35.031 126.631 35.1802C126.569 35.3295 126.465 35.4571 126.33 35.5469C126.196 35.6366 126.038 35.6846 125.876 35.6846C125.66 35.6821 125.454 35.5953 125.301 35.4426C125.149 35.2899 125.062 35.0835 125.059 34.8676ZM125.195 36.0814H126.558V40.6143H125.195V36.0814Z" fill="#34ACE0"/>
<path d="M131.908 37.8133V40.6143H130.545V38.0327C130.557 37.9246 130.545 37.8151 130.51 37.7121C130.475 37.609 130.418 37.5148 130.342 37.4361C130.267 37.3574 130.176 37.2961 130.075 37.2564C129.973 37.2167 129.864 37.1997 129.756 37.2064C129.261 37.2064 128.916 37.4959 128.916 38.1401V40.6143H127.552V36.0814H128.916V36.5109C129.072 36.3218 129.272 36.1728 129.497 36.0762C129.723 35.9796 129.968 35.9382 130.213 35.9553C131.128 35.946 131.908 36.6089 131.908 37.8133Z" fill="#34ACE0"/>
<path d="M137.491 36.0814V40.3902C137.491 41.9121 136.305 42.5563 135.096 42.5563C134.672 42.5863 134.248 42.4999 133.87 42.3066C133.492 42.1132 133.173 41.8203 132.949 41.4593L134.111 40.787C134.204 40.9764 134.353 41.1328 134.537 41.2354C134.722 41.338 134.933 41.3819 135.143 41.3612C135.277 41.3799 135.414 41.3681 135.543 41.3267C135.673 41.2853 135.791 41.2155 135.89 41.1223C135.988 41.029 136.065 40.9149 136.113 40.7881C136.162 40.6614 136.181 40.5255 136.17 40.3902V39.9747C136.009 40.1685 135.806 40.3225 135.576 40.4245C135.346 40.5266 135.096 40.5739 134.844 40.5629C134.251 40.5362 133.691 40.2819 133.281 39.8527C132.871 39.4236 132.642 38.8528 132.642 38.2591C132.642 37.6655 132.871 37.0947 133.281 36.6655C133.691 36.2364 134.251 35.982 134.844 35.9553C135.096 35.9443 135.346 35.9917 135.576 36.0938C135.806 36.1958 136.009 36.3498 136.17 36.5435V36.0767L137.491 36.0814ZM136.17 38.2801C136.179 38.0603 136.123 37.8427 136.007 37.6554C135.892 37.4681 135.723 37.3196 135.522 37.2291C135.322 37.1387 135.099 37.1104 134.882 37.1478C134.665 37.1853 134.464 37.2868 134.306 37.4394C134.147 37.5919 134.038 37.7884 133.992 38.0036C133.946 38.2188 133.965 38.4429 134.048 38.6468C134.131 38.8508 134.272 39.0254 134.455 39.1481C134.638 39.2707 134.853 39.3359 135.073 39.3352C135.216 39.345 135.359 39.3248 135.494 39.2758C135.629 39.2269 135.752 39.1502 135.855 39.0508C135.959 38.9514 136.04 38.8315 136.094 38.6988C136.148 38.5661 136.174 38.4235 136.17 38.2801Z" fill="#34ACE0"/>
</svg>
