<svg width="1180" height="581" viewBox="0 0 1180 581" fill="none" xmlns="http://www.w3.org/2000/svg">
<mask id="mask0_55_193" style="mask-type:alpha" maskUnits="userSpaceOnUse" x="0" y="0" width="1180" height="581">
<rect width="1180" height="581" rx="20" fill="#F2F2F2"/>
</mask>
<g mask="url(#mask0_55_193)">
<path d="M82.2179 493.061C38.1778 463.702 -46.5056 468.669 -89.9741 494.36C-109.771 506.06 -146.275 539.963 -124.062 571.972C-120.144 577.617 -115.382 582.204 -110.455 586.173C-56.2291 629.849 19.4015 625.401 77.5978 599.267C86.2773 595.37 94.8178 590.743 102.676 584.454C108.552 579.751 114.234 573.921 118.811 567.118C132.207 547.202 128.708 527.159 114.294 510.274C97.5823 490.698 74.7293 484.631 53.1663 481.308C34.3107 478.403 15.4784 477.845 -3.46632 479.031C-38.9959 481.254 -79.9414 484.792 -109.74 511.557C-122.756 523.247 -136.739 548.228 -125.582 568.446C-113.493 590.354 -84.9873 597.448 -65.8142 602.071C-14.0908 614.543 67.7495 608.359 114.863 575.63C119.943 572.101 125.09 568.812 129.635 564.17C133.226 560.503 136.664 556.321 139.647 551.796C160.786 519.725 113.617 499.56 96.9821 496.097C44.6507 485.203 -32.8026 469.482 -80.9973 498.462" stroke="#DFDFDF" stroke-miterlimit="1.5" stroke-linecap="round" stroke-linejoin="round"/>
<path d="M1126.22 -52.9388C1082.18 -82.2983 997.494 -77.3312 954.026 -51.6402C934.229 -39.9396 897.725 -6.03682 919.938 25.9716C923.856 31.6174 928.618 36.2039 933.545 40.1728C987.771 83.8491 1063.4 79.4011 1121.6 53.2671C1130.28 49.3696 1138.82 44.7426 1146.68 38.454C1152.55 33.7506 1158.23 27.9209 1162.81 21.1178C1176.21 1.20166 1172.71 -18.8414 1158.29 -35.726C1141.58 -55.3024 1118.73 -61.3691 1097.17 -64.6915C1078.31 -67.5967 1059.48 -68.1546 1040.53 -66.9689C1005 -64.7455 964.059 -61.2077 934.26 -34.4432C921.244 -22.7528 907.261 2.22754 918.418 22.4456C930.507 44.3541 959.013 51.4481 978.186 56.0712C1029.91 68.5433 1111.75 62.359 1158.86 29.6302C1163.94 26.1007 1169.09 22.8116 1173.64 18.1704C1177.23 14.5031 1180.66 10.3215 1183.65 5.79604C1204.79 -26.2754 1157.62 -46.4404 1140.98 -49.9033C1088.65 -60.7973 1011.2 -76.5185 963.003 -47.5384" stroke="#DFDFDF" stroke-miterlimit="1.5" stroke-linecap="round" stroke-linejoin="round"/>
</g>
</svg>
