<svg width="29" height="39" viewBox="0 0 29 39" fill="none" xmlns="http://www.w3.org/2000/svg">
<path d="M14.5 24.6316C17.9386 24.6316 20.6936 21.8811 20.6936 18.4737L20.7143 6.15789C20.7143 2.75053 17.9386 0 14.5 0C11.0614 0 8.28571 2.75053 8.28571 6.15789V18.4737C8.28571 21.8811 11.0614 24.6316 14.5 24.6316ZM25.4786 18.4737C25.4786 24.6316 20.2171 28.9421 14.5 28.9421C8.78286 28.9421 3.52143 24.6316 3.52143 18.4737H0C0 25.4937 5.63429 31.2616 12.4286 32.2674V39H16.5714V32.2674C23.3657 31.2821 29 25.4937 29 18.4737H25.4786Z" fill="white"/>
</svg>
