<svg width="28" height="34" viewBox="0 0 28 34" fill="none" xmlns="http://www.w3.org/2000/svg">
<path d="M25.0733 11.28L11.4014 1.36879C10.3335 0.595746 9.07 0.130126 7.75085 0.0235467C6.43171 -0.0830325 5.10848 0.173592 3.92783 0.764975C2.74718 1.35636 1.75523 2.2594 1.06194 3.374C0.368649 4.4886 0.00109104 5.77123 8.64905e-06 7.0797V26.912C-0.00205044 28.2218 0.363586 29.5064 1.05622 30.6229C1.74885 31.7394 2.7413 32.644 3.92311 33.2359C5.10491 33.8279 6.4297 34.084 7.75001 33.9758C9.07031 33.8676 10.3343 33.3992 11.4014 32.6229L25.0733 22.7117C25.9805 22.0536 26.7181 21.1935 27.2266 20.2011C27.735 19.2087 28 18.1118 28 16.9994C28 15.887 27.735 14.7901 27.2266 13.7977C26.7181 12.8053 25.9805 11.9452 25.0733 11.2871V11.28Z" fill="white"/>
</svg>
