<svg width="93" height="82" viewBox="0 0 93 82" fill="none" xmlns="http://www.w3.org/2000/svg">
<path d="M8.71875 82H31.9688C36.7822 82 40.6875 78.0647 40.6875 73.2143V49.7857C40.6875 44.9353 36.7822 41 31.9688 41H17.4375V29.2857C17.4375 22.8246 22.6506 17.5714 29.0625 17.5714H30.5156C32.9314 17.5714 34.875 15.6129 34.875 13.1786V4.39285C34.875 1.95848 32.9314 0 30.5156 0H29.0625C13.0055 0 0 13.1054 0 29.2857V73.2143C0 78.0647 3.90527 82 8.71875 82ZM61.0312 82H84.2812C89.0947 82 93 78.0647 93 73.2143V49.7857C93 44.9353 89.0947 41 84.2812 41H69.75V29.2857C69.75 22.8246 74.9631 17.5714 81.375 17.5714H82.8281C85.2439 17.5714 87.1875 15.6129 87.1875 13.1786V4.39285C87.1875 1.95848 85.2439 0 82.8281 0H81.375C65.318 0 52.3125 13.1054 52.3125 29.2857V73.2143C52.3125 78.0647 56.2178 82 61.0312 82Z" fill="#FFF4E6"/>
</svg>
