<svg width="19" height="19" viewBox="0 0 19 19" fill="none" xmlns="http://www.w3.org/2000/svg">
<path d="M18.7031 9.5C18.7031 14.5828 14.5828 18.7031 9.5 18.7031C4.41724 18.7031 0.296875 14.5828 0.296875 9.5C0.296875 4.41724 4.41724 0.296875 9.5 0.296875C14.5828 0.296875 18.7031 4.41724 18.7031 9.5ZM8.43548 14.373L15.2636 7.54486C15.4955 7.313 15.4955 6.93704 15.2636 6.70518L14.4239 5.86551C14.1921 5.63361 13.8161 5.63361 13.5842 5.86551L8.01562 11.4341L5.41578 8.83422C5.18392 8.60236 4.80796 8.60236 4.57607 8.83422L3.73639 9.67389C3.50453 9.90575 3.50453 10.2817 3.73639 10.5136L7.59577 14.3729C7.82767 14.6048 8.20358 14.6048 8.43548 14.373Z" fill="#00B894"/>
</svg>
