<svg width="113" height="37" viewBox="0 0 113 37" fill="none" xmlns="http://www.w3.org/2000/svg">
<path d="M2.92447 31.8408C2.0624 23.5495 0.753259 12.1159 2.24707 4.03729C27.7664 3.46205 53.2127 3.07162 78.7516 3.6125C88.4428 3.81778 98.8874 5.56137 108.526 4.4923C108.166 11.903 108.155 19.3039 107.855 26.7033C107.733 29.7336 106.617 32.9712 106.951 36C78.3754 35.7912 49.7765 33.262 21.1808 34.1632C15.6998 34.336 10.1604 33.5318 4.68094 34.1671C19.1311 32.9818 33.9058 34.0123 48.3878 34.1896C58.0699 34.3082 67.7542 32.891 77.4706 32.9603C86.658 33.0258 95.8357 34.7988 104.997 34.6821C107.208 24.0231 110.09 13.1741 111.509 2.37768C105.67 2.25911 99.8382 1.47318 94.0091 1.42684C62.9801 1.18004 31.9909 1.59718 1 2.81317C1.05312 12.3692 3.36196 21.5926 3.96098 31.0512C4.7884 21.2195 2.71691 11.3736 3.29843 1.57247C7.11504 0.717029 11.5678 1.2865 15.4542 1.2225C25.6952 1.0537 35.8304 0.85407 46.0713 1.15663C58.9514 1.53706 71.7694 2.10901 84.6475 2.66919C93.4744 3.05303 103.317 2.3458 112 4.37231C111.1 14.7829 110.031 25.197 109.004 35.5889" stroke="#C5C5C5" stroke-width="0.5" stroke-miterlimit="1.5" stroke-linecap="round" stroke-linejoin="round"/>
</svg>
