<svg width="257" height="70" viewBox="0 0 257 70" fill="none" xmlns="http://www.w3.org/2000/svg">
<path fill-rule="evenodd" clip-rule="evenodd" d="M38.3004 0.37457C36.8696 0.394841 35.4381 0.415122 34.0057 0.435181C31.2851 0.473238 28.4553 0.396748 25.574 0.318867C23.7201 0.268756 21.8449 0.218068 19.9638 0.196947C15.1779 0.143214 10.3879 0.282517 5.95624 1.12636C5.78576 1.15883 5.65863 1.30135 5.64661 1.4735C5.60204 2.11169 5.56422 2.74995 5.53267 3.38828C3.9299 3.44013 2.3271 3.49277 0.724328 3.5462C0.517213 3.5531 0.353291 3.72271 0.354646 3.92873C0.392468 9.71138 0.925746 15.4296 1.6847 21.1119C1.60459 25.1096 1.72565 29.2398 1.97204 33.3741C2.49179 42.0954 3.5711 50.8587 4.50763 58.4629C4.60268 59.2345 4.69625 59.9943 4.78761 60.7408C4.81313 60.9493 5.00383 61.0978 5.21354 61.0724C5.42324 61.047 5.57257 60.8575 5.54706 60.649C5.45572 59.9027 5.36224 59.1437 5.26733 58.373C4.33042 50.7656 3.25402 42.0255 2.73575 33.3291C2.59796 31.0169 2.49973 28.7095 2.45404 26.4289C2.72403 28.1788 3.00754 29.9261 3.29658 31.6717C3.50664 32.9403 3.71959 34.2078 3.93244 35.4747C5.25783 43.3632 6.57924 51.2283 7.17194 59.1789C7.18663 59.3757 7.35029 59.5286 7.54879 59.531C7.74729 59.5334 7.91464 59.3844 7.93409 59.188C8.89031 49.5354 8.17086 39.8823 7.38435 30.272C7.34943 29.8452 7.31436 29.4184 7.27929 28.9917C6.66547 21.521 6.05388 14.0774 6.18885 6.65138C64.0714 5.55356 121.791 4.82747 179.717 5.8697C187.516 6.01004 195.522 6.51817 203.597 7.03066C207.062 7.25056 210.54 7.47126 214.019 7.66405C225.442 8.29708 236.87 8.62799 247.858 7.62965C247.459 14.7351 247.25 21.8348 247.058 28.9269C247.04 29.6167 247.021 30.3064 247.003 30.9961C246.929 33.7375 246.855 36.4778 246.772 39.2174C246.079 41.8677 245.376 44.516 244.675 47.1613C243.016 53.4184 241.361 59.6593 239.84 65.8744C229.414 65.9701 218.975 65.1691 208.512 64.3226C207.983 64.2798 207.454 64.2369 206.924 64.194C196.893 63.3805 186.839 62.5651 176.777 62.5041C165.755 62.4373 154.752 63.0756 143.773 63.7125L143.248 63.7429C133.259 64.3222 123.29 64.8911 113.325 64.9207C105.275 64.7411 97.2237 64.6054 89.1732 64.5343C86.7958 64.4791 84.4163 64.4217 82.0351 64.3642C60.1527 63.8364 38.1343 63.3052 16.3935 64.4289C13.9842 64.4944 11.5766 64.6293 9.17309 64.8661C8.965 64.8866 8.81202 65.0694 8.82965 65.2766C8.84725 65.4837 9.02894 65.6384 9.23755 65.6238C11.6288 65.4572 14.0239 65.313 16.4222 65.1889C20.3339 65.0828 24.2579 65.1603 28.1892 65.2816C29.4022 65.319 30.6162 65.3606 31.8308 65.4022C36.9567 65.5779 42.0923 65.754 47.2043 65.617C61.1762 65.243 75.1456 65.1711 89.1136 65.2939C96.0344 65.4547 102.941 65.5971 109.821 65.6687C110.993 65.6809 112.165 65.6848 113.337 65.6813C130.549 66.0657 147.76 66.6514 164.972 67.2372C191.523 68.1408 218.076 69.0444 244.638 69.2093C244.749 69.21 244.854 69.1632 244.927 69.081C245.001 68.9988 245.034 68.8892 245.02 68.7803C244.644 65.8832 245.082 62.871 245.663 59.8099C245.773 59.2276 245.889 58.6429 246.005 58.0571C246.495 55.5834 246.988 53.0894 247.104 50.6656C247.284 46.8859 247.418 43.1062 247.534 39.3268C250.336 28.6093 252.994 17.8397 254.859 7.09342C255.189 7.15465 255.519 7.21728 255.847 7.28134C254.181 23.6156 252.267 39.9537 250.355 56.2734C249.898 60.1772 249.44 64.08 248.987 67.9815C248.962 68.1901 249.113 68.3788 249.323 68.4029C249.533 68.427 249.722 68.2774 249.747 68.0688C250.2 64.1688 250.657 60.267 251.115 56.3637C253.04 39.929 254.968 23.4689 256.643 7.01371C256.663 6.81881 256.531 6.64081 256.338 6.6025C255.889 6.51356 255.439 6.4273 254.988 6.34365C255.17 5.27295 255.344 4.2025 255.51 3.13237C255.527 3.02385 255.495 2.91341 255.424 2.82947C255.353 2.74553 255.249 2.69627 255.138 2.69436C248.768 2.58446 242.401 2.18096 236.026 1.77696C235.686 1.7554 235.345 1.73384 235.005 1.71233C228.292 1.28781 221.571 0.880165 214.85 0.834761C185.361 0.6355 155.887 0.657527 126.422 0.919409C119.122 0.696274 111.816 0.48996 104.502 0.306433C82.3514 -0.249534 60.416 0.0612417 38.3004 0.37457ZM145.669 1.54283C168.72 1.41897 191.778 1.43942 214.845 1.59529C221.542 1.64052 228.242 2.04671 234.957 2.47133C235.299 2.49295 235.64 2.51462 235.982 2.53629C242.207 2.93078 248.445 3.32606 254.687 3.44677C254.542 4.36662 254.392 5.28661 254.235 6.20673C244.823 4.5265 234.877 3.95184 224.913 3.72518C220.318 3.62066 215.727 3.59006 211.182 3.55977C205.112 3.51931 199.123 3.47939 193.311 3.26466C191.266 3.18909 189.222 3.11342 187.178 3.03777C173.326 2.52497 159.499 2.0131 145.669 1.54283ZM254.107 6.95643C244.752 5.28584 234.85 4.71195 224.895 4.48552C220.331 4.38171 215.748 4.351 211.202 4.32054C205.115 4.27976 199.095 4.23943 193.282 4.02467C191.238 3.94912 189.194 3.87346 187.151 3.79782C166.878 3.04735 146.663 2.299 126.414 1.68006C86.3534 2.03623 46.3092 2.83585 6.26468 4.12559C6.23982 4.71375 6.22014 5.30202 6.20534 5.89039C64.0798 4.79285 121.801 4.06698 179.731 5.10928C187.548 5.24995 195.583 5.75987 203.666 6.27285C207.127 6.49248 210.596 6.71267 214.061 6.90468C225.63 7.54576 237.165 7.87409 248.229 6.83151C248.34 6.82105 248.45 6.85927 248.53 6.93617C248.61 7.01307 248.653 7.12099 248.647 7.23167C248.233 14.4718 248.019 21.7084 247.823 28.9474C247.804 29.6372 247.786 30.3271 247.767 31.017C247.724 32.6442 247.68 34.2714 247.634 35.8988C250.119 26.2634 252.432 16.6041 254.107 6.95643ZM5.42352 6.66592C5.28995 14.1243 5.90334 21.5884 6.51527 29.0352C6.55085 29.4681 6.58641 29.9009 6.62183 30.3337C7.28156 38.3949 7.88889 46.4365 7.50931 54.4671C6.82252 48.0582 5.75349 41.6959 4.68626 35.3444C4.47357 34.0787 4.26097 32.8133 4.05147 31.5482C3.47355 28.058 2.91907 24.5678 2.45077 21.0691C2.55577 15.9541 2.99267 11.0732 3.91872 6.69462C4.42033 6.68503 4.92193 6.67546 5.42352 6.66592ZM1.88203 16.3896C2.1156 12.8162 2.5464 9.39923 3.23408 6.23981C3.27157 6.06751 3.42328 5.94342 3.60056 5.94003C4.21364 5.92829 4.82672 5.91659 5.43977 5.90493C5.4543 5.32002 5.47356 4.73516 5.49796 4.15035C4.03956 4.19755 2.58117 4.2454 1.12277 4.2939C1.16419 8.35069 1.44852 12.3783 1.88203 16.3896ZM6.29987 3.36352C39.8306 2.28398 73.361 1.54802 106.901 1.12823C106.095 1.10746 105.289 1.08696 104.483 1.06673C82.3478 0.51116 60.4266 0.821723 38.3077 1.13509C36.8781 1.15534 35.4478 1.1756 34.0165 1.19565C31.2857 1.23385 28.4221 1.15662 25.5246 1.07847C23.6733 1.02855 21.8082 0.978247 19.9551 0.957441C15.2883 0.905043 10.6638 1.03808 6.38983 1.81928C6.35555 2.33395 6.32564 2.8487 6.29987 3.36352ZM246.661 42.6477C246.57 45.3087 246.466 47.9693 246.34 50.6297C246.227 52.9919 245.748 55.4162 245.259 57.8857C245.142 58.4776 245.024 59.0721 244.911 59.669C244.357 62.5905 243.912 65.5558 244.211 68.446C217.843 68.2744 191.449 67.3765 165.044 66.4783C152.786 66.0613 140.526 65.6443 128.265 65.2998C133.275 65.0808 138.285 64.7926 143.293 64.5022L143.807 64.4723C154.793 63.835 165.775 63.198 176.773 63.2646C186.804 63.3254 196.832 64.1387 206.871 64.9527C207.397 64.9954 207.923 65.0381 208.45 65.0807C219.01 65.9349 229.581 66.7463 240.145 66.6319C240.32 66.6301 240.471 66.5104 240.513 66.3414C242.046 60.0631 243.721 53.7441 245.403 47.4C245.823 45.8174 246.243 44.2332 246.661 42.6477ZM58.0048 64.6256C54.3976 64.6838 50.7905 64.7602 47.1836 64.8568C42.1297 64.9921 37.0557 64.8202 31.9642 64.6458C40.6237 64.4752 49.3116 64.503 58.0048 64.6256Z" fill="#34ACE0"/>
</svg>
