<svg width="268" height="74" viewBox="0 0 268 74" fill="none" xmlns="http://www.w3.org/2000/svg">
<path d="M214.218 -52.9388C170.178 -82.2983 85.4944 -77.3312 42.0259 -51.6402C22.2293 -39.9396 -14.2751 -6.03682 7.938 25.9716C11.8558 31.6174 16.6181 36.2039 21.5453 40.1728C75.7709 83.8491 151.402 79.4011 209.598 53.2671C218.277 49.3696 226.818 44.7426 234.676 38.454C240.552 33.7506 246.234 27.9209 250.811 21.1178C264.207 1.20166 260.708 -18.8414 246.294 -35.726C229.582 -55.3024 206.729 -61.3691 185.166 -64.6915C166.311 -67.5967 147.478 -68.1546 128.534 -66.9689C93.0041 -64.7455 52.0586 -61.2077 22.2597 -34.4432C9.24435 -22.7528 -4.73896 2.22754 6.41754 22.4456C18.507 44.3541 47.0127 51.4481 66.1858 56.0712C117.909 68.5433 199.749 62.359 246.863 29.6302C251.943 26.1007 257.09 22.8116 261.635 18.1704C265.226 14.5031 268.664 10.3215 271.647 5.79604C292.786 -26.2754 245.617 -46.4404 228.982 -49.9033C176.651 -60.7973 99.1974 -76.5185 51.0027 -47.5384" stroke="#DFDFDF" stroke-miterlimit="1.5" stroke-linecap="round" stroke-linejoin="round"/>
</svg>
