<svg width="278" height="148" viewBox="0 0 278 148" fill="none" xmlns="http://www.w3.org/2000/svg">
<path d="M214.218 126.939C170.178 156.298 85.4944 151.331 42.0259 125.64C22.2293 113.94 -14.2751 80.0368 7.938 48.0284C11.8558 42.3826 16.6181 37.7961 21.5453 33.8272C75.7709 -9.84909 151.402 -5.40107 209.598 20.7329C218.277 24.6304 226.818 29.2574 234.676 35.546C240.552 40.2494 246.234 46.0791 250.811 52.8822C264.207 72.7983 260.708 92.8414 246.294 109.726C229.582 129.302 206.729 135.369 185.166 138.692C166.311 141.597 147.478 142.155 128.534 140.969C93.0041 138.746 52.0586 135.208 22.2597 108.443C9.24435 96.7528 -4.73896 71.7725 6.41754 51.5544C18.507 29.6459 47.0127 22.5519 66.1858 17.9288C117.909 5.45669 199.749 11.641 246.863 44.3698C251.943 47.8993 257.09 51.1884 261.635 55.8296C265.226 59.4969 268.664 63.6785 271.647 68.204C292.786 100.275 245.617 120.44 228.982 123.903C176.651 134.797 99.1974 150.518 51.0027 121.538" stroke="#BEBEBE" stroke-miterlimit="1.5" stroke-linecap="round" stroke-linejoin="round"/>
</svg>
