<svg width="314" height="167" viewBox="0 0 314 167" fill="none" xmlns="http://www.w3.org/2000/svg">
<path d="M242.029 23.6719C192.244 -9.50836 96.5154 -3.8949 47.3771 25.1395C24.9984 38.3628 -16.2675 76.6776 8.84296 112.851C13.2718 119.232 18.6552 124.415 24.2251 128.901C85.5237 178.261 171.019 173.234 236.806 143.699C246.618 139.294 256.272 134.065 265.155 126.958C271.798 121.643 278.221 115.054 283.394 107.366C298.539 84.858 294.583 62.2066 278.289 43.1247C259.397 21.0007 233.564 14.1445 209.188 10.3897C187.873 7.10649 166.584 6.47602 145.169 7.816C105.005 10.3287 58.7184 14.3269 25.0327 44.5745C10.3197 57.7862 -5.48752 86.0174 7.12417 108.867C20.7906 133.626 53.0144 141.643 74.6883 146.868C133.158 160.963 225.673 153.974 278.932 116.986C284.675 112.997 290.493 109.28 295.631 104.035C299.69 99.8905 303.577 95.1647 306.949 90.0503C330.845 53.8052 277.524 31.016 258.719 27.1024C199.562 14.7907 112.006 -2.97634 57.5248 29.7751" stroke="#BEBEBE" stroke-miterlimit="1.5" stroke-linecap="round" stroke-linejoin="round"/>
</svg>
