<svg width="93" height="82" viewBox="0 0 93 82" fill="none" xmlns="http://www.w3.org/2000/svg">
<path d="M84.2812 0H61.0312C56.2178 0 52.3125 3.93527 52.3125 8.78571V32.2143C52.3125 37.0647 56.2178 41 61.0312 41H75.5625V52.7143C75.5625 59.1754 70.3494 64.4286 63.9375 64.4286H62.4844C60.0686 64.4286 58.125 66.3871 58.125 68.8214V77.6071C58.125 80.0415 60.0686 82 62.4844 82H63.9375C79.9945 82 93 68.8946 93 52.7143V8.78571C93 3.93527 89.0947 0 84.2812 0ZM31.9688 0H8.71875C3.90527 0 0 3.93527 0 8.78571V32.2143C0 37.0647 3.90527 41 8.71875 41H23.25V52.7143C23.25 59.1754 18.0369 64.4286 11.625 64.4286H10.1719C7.75605 64.4286 5.8125 66.3871 5.8125 68.8214V77.6071C5.8125 80.0415 7.75605 82 10.1719 82H11.625C27.682 82 40.6875 68.8946 40.6875 52.7143V8.78571C40.6875 3.93527 36.7822 0 31.9688 0Z" fill="#FFF4E6"/>
</svg>
