<svg width="471" height="71" viewBox="0 0 471 71" fill="none" xmlns="http://www.w3.org/2000/svg">
<path d="M5.84689 61.8004C3.67571 45.4547 0.378544 22.9142 4.14079 6.9878C68.4128 5.85376 167.405 5.08404 231.726 6.15037C256.134 6.55505 436.975 9.99242 461.25 7.88482C460.343 22.4944 460.315 37.0848 459.562 51.6722C459.253 57.6462 456.443 64.029 457.285 70C385.315 69.5884 123.846 64.6023 51.8265 66.379C38.0223 66.7196 24.0709 65.1341 10.2707 66.3866C46.6642 64.0499 118.779 66.0814 155.253 66.4309C179.638 66.6647 204.028 63.8709 228.5 64.0075C251.639 64.1366 429.289 67.632 452.362 67.4019C457.931 46.3883 465.19 25.0005 468.763 3.71601C454.057 3.48224 439.37 1.93285 424.689 1.84148C346.54 1.35493 79.0525 2.17729 0.999986 4.57454C1.13377 23.4135 6.94873 41.5969 8.4574 60.2438C10.5413 40.8612 5.32411 21.4509 6.78869 2.12859C16.4011 0.442142 27.6156 1.56481 37.4037 1.43865C63.1964 1.10586 123.626 0.712309 149.418 1.30878C181.858 2.05878 214.141 3.18633 246.575 4.29069C268.806 5.04741 448.131 3.65316 470 7.64827C467.732 28.1721 465.041 48.7027 462.455 69.1896" stroke="#C5C5C5" stroke-width="0.5" stroke-miterlimit="1.5" stroke-linecap="round" stroke-linejoin="round"/>
</svg>
