<svg width="100" height="37" viewBox="0 0 100 37" fill="none" xmlns="http://www.w3.org/2000/svg">
<path d="M2.69908 31.8408C1.93797 23.5495 0.782154 12.1159 2.10101 4.03729C24.6316 3.46205 47.0977 3.07162 69.6455 3.6125C78.2017 3.81778 87.4231 5.56137 95.9326 4.4923C95.6146 11.903 95.6049 19.3039 95.3408 26.7033C95.2326 29.7336 94.2475 32.9712 94.5427 36C69.3135 35.7912 44.0639 33.262 18.8173 34.1632C13.9782 34.336 9.08754 33.5318 4.24984 34.1671C17.0076 32.9818 30.052 34.0123 42.8379 34.1896C51.3861 34.3082 59.9362 32.891 68.5146 32.9603C76.626 33.0258 84.7288 34.7988 92.8169 34.6821C94.7693 24.0231 97.3138 13.1741 98.5662 2.37768C93.4111 2.25911 88.2625 1.47318 83.1162 1.42684C55.7211 1.18004 28.3613 1.59718 1 2.81317C1.0469 12.3692 3.08533 21.5926 3.6142 31.0512C4.34472 21.2195 2.51583 11.3736 3.02924 1.57247C6.39886 0.717029 10.3301 1.2865 13.7613 1.2225C22.803 1.0537 31.7511 0.85407 40.7927 1.15663C52.1643 1.53706 63.4811 2.10901 74.8509 2.66919C82.6441 3.05303 91.3339 2.3458 99 4.37231C98.2051 14.7829 97.2615 25.197 96.3551 35.5889" stroke="#C5C5C5" stroke-width="0.5" stroke-miterlimit="1.5" stroke-linecap="round" stroke-linejoin="round"/>
</svg>
